<svg xmlns="http://www.w3.org/2000/svg" xmlns:xlink="http://www.w3.org/1999/xlink" contentStyleType="text/css" data-diagram-type="DESCRIPTION" height="938px" preserveAspectRatio="none" style="width:2434px;height:938px;background:#FEFEFE;" version="1.1" viewBox="0 0 2434 938" width="2434px" zoomAndPan="magnify"><title>Docker Deployment Architecture</title><defs/><g><rect fill="#FEFEFE" height="938" style="stroke:none;stroke-width:1;" width="2434" x="0" y="0"/><g class="title" data-source-line="9"><text fill="#000000" font-family="Verdana" font-size="22" font-weight="bold" lengthAdjust="spacing" textLength="406.6348" x="1009.6218" y="35.4209">Docker Deployment Architecture</text></g><!--cluster Docker Network: social-network-net--><g class="cluster" data-entity="Docker Network. social-network-net" data-source-line="11" data-uid="ent0002" id="cluster_Docker Network. social-network-net"><path d="M13.5,224.4086 L238.6304,224.4086 A3.75,3.75 0 0 1 241.1304,226.9086 L248.1304,243.2133 L1777.5,243.2133 A2.5,2.5 0 0 1 1780,245.7133 L1780,928.7486 A2.5,2.5 0 0 1 1777.5,931.2486 L13.5,931.2486 A2.5,2.5 0 0 1 11,928.7486 L11,226.9086 A2.5,2.5 0 0 1 13.5,224.4086" fill="#FFFFFF" style="stroke:#000000;stroke-width:1;"/><line style="stroke:#000000;stroke-width:1;" x1="11" x2="248.1304" y1="243.2133" y2="243.2133"/><text fill="#000000" font-family="Verdana" font-size="11" font-weight="bold" lengthAdjust="spacing" textLength="224.1304" x="15" y="236.619">Docker Network: social-network-net</text></g><!--cluster gateway--><g class="cluster" data-entity="gateway" data-source-line="13" data-uid="ent0003" id="cluster_gateway"><polygon fill="#ADD8E6" points="803,281.4086,813,271.4086,1008,271.4086,1008,378.2086,998,388.2086,803,388.2086,803,281.4086" style="stroke:#000000;stroke-width:1;"/><line style="stroke:#000000;stroke-width:1;" x1="998" x2="1008" y1="281.4086" y2="271.4086"/><line style="stroke:#000000;stroke-width:1;" x1="803" x2="998" y1="281.4086" y2="281.4086"/><line style="stroke:#000000;stroke-width:1;" x1="998" x2="998" y1="281.4086" y2="388.2086"/><text fill="#000000" font-family="Verdana" font-size="11" font-weight="bold" lengthAdjust="spacing" textLength="78.4233" x="862.2883" y="294.619">API Gateway</text><text fill="#000000" font-family="Verdana" font-size="11" font-weight="bold" lengthAdjust="spacing" textLength="35.0142" x="883.9929" y="307.4237">:8080</text></g><!--cluster eureka--><g class="cluster" data-entity="eureka" data-source-line="17" data-uid="ent0005" id="cluster_eureka"><polygon fill="#800080" points="587,634.5186,597,624.5186,798,624.5186,798,731.3186,788,741.3186,587,741.3186,587,634.5186" style="stroke:#000000;stroke-width:1;"/><line style="stroke:#000000;stroke-width:1;" x1="788" x2="798" y1="634.5186" y2="624.5186"/><line style="stroke:#000000;stroke-width:1;" x1="587" x2="788" y1="634.5186" y2="634.5186"/><line style="stroke:#000000;stroke-width:1;" x1="788" x2="788" y1="634.5186" y2="741.3186"/><text fill="#000000" font-family="Verdana" font-size="11" font-weight="bold" lengthAdjust="spacing" textLength="87.6616" x="644.6692" y="647.729">Eureka Server</text><text fill="#000000" font-family="Verdana" font-size="11" font-weight="bold" lengthAdjust="spacing" textLength="35.0142" x="670.9929" y="660.5337">:8761</text></g><!--cluster auth--><g class="cluster" data-entity="auth" data-source-line="21" data-uid="ent0007" id="cluster_auth"><polygon fill="#008000" points="602,447.2086,612,437.2086,785,437.2086,785,544.0186,775,554.0186,602,554.0186,602,447.2086" style="stroke:#000000;stroke-width:1;"/><line style="stroke:#000000;stroke-width:1;" x1="775" x2="785" y1="447.2086" y2="437.2086"/><line style="stroke:#000000;stroke-width:1;" x1="602" x2="775" y1="447.2086" y2="447.2086"/><line style="stroke:#000000;stroke-width:1;" x1="775" x2="775" y1="447.2086" y2="554.0186"/><text fill="#000000" font-family="Verdana" font-size="11" font-weight="bold" lengthAdjust="spacing" textLength="78.9927" x="650.0037" y="460.419">Auth Service</text><text fill="#000000" font-family="Verdana" font-size="11" font-weight="bold" lengthAdjust="spacing" textLength="35.0142" x="671.9929" y="473.2237">:8087</text></g><!--cluster main--><g class="cluster" data-entity="main" data-source-line="25" data-uid="ent0009" id="cluster_main"><polygon fill="#008000" points="376,447.2086,386,437.2086,562,437.2086,562,544.0186,552,554.0186,376,554.0186,376,447.2086" style="stroke:#000000;stroke-width:1;"/><line style="stroke:#000000;stroke-width:1;" x1="552" x2="562" y1="447.2086" y2="437.2086"/><line style="stroke:#000000;stroke-width:1;" x1="376" x2="552" y1="447.2086" y2="447.2086"/><line style="stroke:#000000;stroke-width:1;" x1="552" x2="552" y1="447.2086" y2="554.0186"/><text fill="#000000" font-family="Verdana" font-size="11" font-weight="bold" lengthAdjust="spacing" textLength="79.5298" x="425.2351" y="460.419">Main Service</text><text fill="#000000" font-family="Verdana" font-size="11" font-weight="bold" lengthAdjust="spacing" textLength="35.0142" x="447.4929" y="473.2237">:8083</text></g><!--cluster chat--><g class="cluster" data-entity="chat" data-source-line="29" data-uid="ent0011" id="cluster_chat"><polygon fill="#008000" points="825,447.2086,835,437.2086,1008,437.2086,1008,544.0186,998,554.0186,825,554.0186,825,447.2086" style="stroke:#000000;stroke-width:1;"/><line style="stroke:#000000;stroke-width:1;" x1="998" x2="1008" y1="447.2086" y2="437.2086"/><line style="stroke:#000000;stroke-width:1;" x1="825" x2="998" y1="447.2086" y2="447.2086"/><line style="stroke:#000000;stroke-width:1;" x1="998" x2="998" y1="447.2086" y2="554.0186"/><text fill="#000000" font-family="Verdana" font-size="11" font-weight="bold" lengthAdjust="spacing" textLength="78.144" x="873.428" y="460.419">Chat Service</text><text fill="#000000" font-family="Verdana" font-size="11" font-weight="bold" lengthAdjust="spacing" textLength="35.0142" x="894.9929" y="473.2237">:8086</text></g><!--cluster notification--><g class="cluster" data-entity="notification" data-source-line="33" data-uid="ent0013" id="cluster_notification"><polygon fill="#008000" points="1048,447.2086,1058,437.2086,1269,437.2086,1269,544.0186,1259,554.0186,1048,554.0186,1048,447.2086" style="stroke:#000000;stroke-width:1;"/><line style="stroke:#000000;stroke-width:1;" x1="1259" x2="1269" y1="447.2086" y2="437.2086"/><line style="stroke:#000000;stroke-width:1;" x1="1048" x2="1259" y1="447.2086" y2="447.2086"/><line style="stroke:#000000;stroke-width:1;" x1="1259" x2="1259" y1="447.2086" y2="554.0186"/><text fill="#000000" font-family="Verdana" font-size="11" font-weight="bold" lengthAdjust="spacing" textLength="122.2676" x="1093.3662" y="460.419">Notification Service</text><text fill="#000000" font-family="Verdana" font-size="11" font-weight="bold" lengthAdjust="spacing" textLength="35.0142" x="1136.9929" y="473.2237">:8085</text></g><!--cluster search--><g class="cluster" data-entity="search" data-source-line="37" data-uid="ent0015" id="cluster_search"><polygon fill="#008000" points="1309,447.2086,1319,437.2086,1504,437.2086,1504,544.0186,1494,554.0186,1309,554.0186,1309,447.2086" style="stroke:#000000;stroke-width:1;"/><line style="stroke:#000000;stroke-width:1;" x1="1494" x2="1504" y1="447.2086" y2="437.2086"/><line style="stroke:#000000;stroke-width:1;" x1="1309" x2="1494" y1="447.2086" y2="447.2086"/><line style="stroke:#000000;stroke-width:1;" x1="1494" x2="1494" y1="447.2086" y2="554.0186"/><text fill="#000000" font-family="Verdana" font-size="11" font-weight="bold" lengthAdjust="spacing" textLength="92.1411" x="1356.4294" y="460.419">Search Service</text><text fill="#000000" font-family="Verdana" font-size="11" font-weight="bold" lengthAdjust="spacing" textLength="35.0142" x="1384.9929" y="473.2237">:8084</text></g><!--cluster postgres--><g class="cluster" data-entity="postgres" data-source-line="41" data-uid="ent0017" id="cluster_postgres"><path d="M43,626.0186 C43,616.0186 154,616.0186 154,616.0186 C154,616.0186 265,616.0186 265,626.0186 L265,729.8186 C265,739.8186 154,739.8186 154,739.8186 C154,739.8186 43,739.8186 43,729.8186 L43,626.0186" fill="#F5DEB3" style="stroke:#000000;stroke-width:1;"/><path d="M43,626.0186 C43,636.0186 154,636.0186 154,636.0186 C154,636.0186 265,636.0186 265,626.0186" fill="none" style="stroke:#000000;stroke-width:1;"/><text fill="#000000" font-family="Verdana" font-size="11" font-weight="bold" lengthAdjust="spacing" textLength="72.4668" x="117.7666" y="648.229">PostgreSQL</text><text fill="#000000" font-family="Verdana" font-size="11" font-weight="bold" lengthAdjust="spacing" textLength="35.0142" x="136.4929" y="661.0337">:5432</text></g><!--cluster mongo--><g class="cluster" data-entity="mongo" data-source-line="46" data-uid="ent0020" id="cluster_mongo"><path d="M845,626.0186 C845,616.0186 922.5,616.0186 922.5,616.0186 C922.5,616.0186 1000,616.0186 1000,626.0186 L1000,729.8186 C1000,739.8186 922.5,739.8186 922.5,739.8186 C922.5,739.8186 845,739.8186 845,729.8186 L845,626.0186" fill="#F5DEB3" style="stroke:#000000;stroke-width:1;"/><path d="M845,626.0186 C845,636.0186 922.5,636.0186 922.5,636.0186 C922.5,636.0186 1000,636.0186 1000,626.0186" fill="none" style="stroke:#000000;stroke-width:1;"/><text fill="#000000" font-family="Verdana" font-size="11" font-weight="bold" lengthAdjust="spacing" textLength="59.2808" x="892.8596" y="648.229">MongoDB</text><text fill="#000000" font-family="Verdana" font-size="11" font-weight="bold" lengthAdjust="spacing" textLength="42.668" x="901.166" y="661.0337">:27017</text></g><!--cluster elastic--><g class="cluster" data-entity="elastic" data-source-line="50" data-uid="ent0022" id="cluster_elastic"><path d="M1589,626.0186 C1589,616.0186 1668.5,616.0186 1668.5,616.0186 C1668.5,616.0186 1748,616.0186 1748,626.0186 L1748,729.8186 C1748,739.8186 1668.5,739.8186 1668.5,739.8186 C1668.5,739.8186 1589,739.8186 1589,729.8186 L1589,626.0186" fill="#F5DEB3" style="stroke:#000000;stroke-width:1;"/><path d="M1589,626.0186 C1589,636.0186 1668.5,636.0186 1668.5,636.0186 C1668.5,636.0186 1748,636.0186 1748,626.0186" fill="none" style="stroke:#000000;stroke-width:1;"/><text fill="#000000" font-family="Verdana" font-size="11" font-weight="bold" lengthAdjust="spacing" textLength="82.0112" x="1627.4944" y="648.229">Elasticsearch</text><text fill="#000000" font-family="Verdana" font-size="11" font-weight="bold" lengthAdjust="spacing" textLength="35.0142" x="1650.9929" y="661.0337">:9200</text></g><!--cluster redis--><g class="cluster" data-entity="redis" data-source-line="54" data-uid="ent0024" id="cluster_redis"><path d="M305,626.0186 C305,616.0186 426,616.0186 426,616.0186 C426,616.0186 547,616.0186 547,626.0186 L547,729.8186 C547,739.8186 426,739.8186 426,739.8186 C426,739.8186 305,739.8186 305,729.8186 L305,626.0186" fill="#F5DEB3" style="stroke:#000000;stroke-width:1;"/><path d="M305,626.0186 C305,636.0186 426,636.0186 426,636.0186 C426,636.0186 547,636.0186 547,626.0186" fill="none" style="stroke:#000000;stroke-width:1;"/><text fill="#000000" font-family="Verdana" font-size="11" font-weight="bold" lengthAdjust="spacing" textLength="34.1226" x="408.9387" y="648.229">Redis</text><text fill="#000000" font-family="Verdana" font-size="11" font-weight="bold" lengthAdjust="spacing" textLength="35.0142" x="408.4929" y="661.0337">:6379</text></g><!--cluster kafka--><g class="cluster" data-entity="kafka" data-source-line="59" data-uid="ent0027" id="cluster_kafka"><polygon fill="#FFA500" points="1054,637.6186,1064,627.6186,1232,627.6186,1232,889.2486,1222,899.2486,1054,899.2486,1054,637.6186" style="stroke:#000000;stroke-width:1;"/><line style="stroke:#000000;stroke-width:1;" x1="1222" x2="1232" y1="637.6186" y2="627.6186"/><line style="stroke:#000000;stroke-width:1;" x1="1054" x2="1222" y1="637.6186" y2="637.6186"/><line style="stroke:#000000;stroke-width:1;" x1="1222" x2="1222" y1="637.6186" y2="899.2486"/><text fill="#000000" font-family="Verdana" font-size="11" font-weight="bold" lengthAdjust="spacing" textLength="83.6655" x="1097.1672" y="650.829">Kafka Cluster</text></g><!--cluster elk--><g class="cluster" data-entity="elk" data-source-line="64" data-uid="ent0030" id="cluster_elk"><polygon fill="#FFC0CB" points="1279,637.6186,1289,627.6186,1549,627.6186,1549,889.2486,1539,899.2486,1279,899.2486,1279,637.6186" style="stroke:#000000;stroke-width:1;"/><line style="stroke:#000000;stroke-width:1;" x1="1539" x2="1549" y1="637.6186" y2="627.6186"/><line style="stroke:#000000;stroke-width:1;" x1="1279" x2="1539" y1="637.6186" y2="637.6186"/><line style="stroke:#000000;stroke-width:1;" x1="1539" x2="1539" y1="637.6186" y2="899.2486"/><text fill="#000000" font-family="Verdana" font-size="11" font-weight="bold" lengthAdjust="spacing" textLength="61.3164" x="1379.3418" y="650.829">ELK Stack</text></g><!--cluster external--><g class="cluster" data-entity="external" data-source-line="71" data-uid="ent0034" id="cluster_external"><path d="M919.2462,65.6974 C923.2516,58.7064 930.5594,57.6727 934.2921,65.9658 C938.3724,60.9449 942.7573,60.8503 946.578,66.2713 C950.4204,59.9014 956.1406,59.6444 960.3114,65.9145 C965.0556,58.8645 970.0889,57.8633 976.092,64.4586 C980.8866,57.6094 986.1548,58.4014 990.1525,65.2752 C993.4463,58.7798 999.6394,58.6088 1002.9128,65.295 C1007.1296,57.8288 1012.3586,59.3559 1016.9551,64.8848 C1021.8305,58.2899 1027.3158,58.4888 1032.2796,64.7797 C1037.1796,58.1149 1043.8495,58.3122 1047.01,66.5043 C1050.8785,59.5786 1056.5581,59.7236 1060.9523,65.9469 C1064.4828,60.7522 1070.2365,58.9811 1073.8026,65.9091 C1082.8139,58.096 1090.9728,62.381 1094,72.6086 C1094.6746,73.0009 1094.6696,73.4381 1094.0611,73.8915 C1101.7252,76.2152 1105.7349,83.433 1098.277,89.7714 C1105.4449,93.6001 1105.1738,97.8499 1100.1233,103.3411 C1108.4007,106.8929 1109.95,113.8945 1102.3853,119.6444 C1108.1866,124.6747 1108.5991,130.1562 1100.9833,133.8635 C1108.9721,140.4155 1106.3554,146.8363 1098.2014,150.725 C1104.1997,161.4036 1100.3898,170.7632 1087,170.4086 C1088.4104,170.3681 1089.3988,171.1084 1088.7003,172.6603 C1084.2293,178.8066 1079.0137,179.9678 1074.0091,173.2707 C1069.8393,179.4576 1065.6569,179.8802 1060.8069,174.0159 C1056.1135,181.6632 1049.1537,179.7699 1045.1938,173.2098 C1041.6225,179.5538 1036.0279,182.0433 1030.8866,174.8717 C1026.7455,182.3305 1021.7233,181.2188 1017.1426,175.3241 C1013.971,181.2704 1009.1045,183.0417 1004.5473,176.7502 C1000.3581,184.5046 994.2705,182.7942 990.2818,176.5459 C984.7648,183.2271 979.2956,182.5179 975.5538,174.7379 C971.5065,181.2807 966.6458,181.8103 962.2695,175.0669 C956.5851,182.65 949.1767,180.6831 946.4573,172.1566 C943.0396,178.8132 937.628,178.7763 933.2093,173.2448 C921.6417,179.9558 913.6575,176.8155 911,163.4086 C912.1263,163.2899 912.5144,163.8973 912.0623,164.9017 C904.011,161.6116 901.408,156.3427 908.0381,149.2725 C900.5637,146.0273 899.255,141.5223 905.1088,135.4522 C896.889,130.9083 896.5176,124.4129 903.5932,118.5015 C897.5629,113.2516 897.8431,107.6553 905.7524,104.5652 C899.0617,98.1179 899.7409,91.5875 908.781,88.0197 C900.292,77.7505 905.5036,67.2453 918,65.6086 C918.4745,64.9645 918.8578,65.1339 919.2462,65.6974" fill="#D3D3D3" style="stroke:#000000;stroke-width:1;"/><text fill="#000000" font-family="Verdana" font-size="11" font-weight="bold" lengthAdjust="spacing" textLength="97.7163" x="953.6418" y="80.819">External Access</text></g><!--entity gateway_jar--><g class="entity" data-entity="gateway_jar" data-source-line="14" data-uid="ent0004" id="entity_gateway_jar"><rect fill="#FFFFFF" height="35.8047" rx="2.5" ry="2.5" style="stroke:#000000;stroke-width:1;" width="138.2383" x="826.88" y="328.4086"/><polygon fill="#FFFFFF" points="948.1183,333.4086,948.1183,347.4086,960.1183,347.4086,960.1183,339.4086,954.1183,333.4086,948.1183,333.4086" style="stroke:#000000;stroke-width:1;"/><line style="stroke:#000000;stroke-width:1;" x1="954.1183" x2="954.1183" y1="333.4086" y2="339.4086"/><line style="stroke:#000000;stroke-width:1;" x1="960.1183" x2="954.1183" y1="339.4086" y2="339.4086"/><text fill="#000000" font-family="Verdana" font-size="11" lengthAdjust="spacing" textLength="108.2383" x="836.88" y="351.619">gateway-service.jar</text></g><!--entity eureka_jar--><g class="entity" data-entity="eureka_jar" data-source-line="18" data-uid="ent0006" id="entity_eureka_jar"><rect fill="#FFFFFF" height="35.8047" rx="2.5" ry="2.5" style="stroke:#000000;stroke-width:1;" width="144.0444" x="610.98" y="681.5186"/><polygon fill="#FFFFFF" points="738.0244,686.5186,738.0244,700.5186,750.0244,700.5186,750.0244,692.5186,744.0244,686.5186,738.0244,686.5186" style="stroke:#000000;stroke-width:1;"/><line style="stroke:#000000;stroke-width:1;" x1="744.0244" x2="744.0244" y1="686.5186" y2="692.5186"/><line style="stroke:#000000;stroke-width:1;" x1="750.0244" x2="744.0244" y1="692.5186" y2="692.5186"/><text fill="#000000" font-family="Verdana" font-size="11" lengthAdjust="spacing" textLength="114.0444" x="620.98" y="704.729">discovery-service.jar</text></g><!--entity auth_jar--><g class="entity" data-entity="auth_jar" data-source-line="22" data-uid="ent0008" id="entity_auth_jar"><rect fill="#FFFFFF" height="35.8047" rx="2.5" ry="2.5" style="stroke:#000000;stroke-width:1;" width="116.1846" x="625.91" y="494.2086"/><polygon fill="#FFFFFF" points="725.0946,499.2086,725.0946,513.2086,737.0946,513.2086,737.0946,505.2086,731.0946,499.2086,725.0946,499.2086" style="stroke:#000000;stroke-width:1;"/><line style="stroke:#000000;stroke-width:1;" x1="731.0946" x2="731.0946" y1="499.2086" y2="505.2086"/><line style="stroke:#000000;stroke-width:1;" x1="737.0946" x2="731.0946" y1="505.2086" y2="505.2086"/><text fill="#000000" font-family="Verdana" font-size="11" lengthAdjust="spacing" textLength="86.1846" x="635.91" y="517.419">auth-service.jar</text></g><!--entity main_jar--><g class="entity" data-entity="main_jar" data-source-line="26" data-uid="ent0010" id="entity_main_jar"><rect fill="#FFFFFF" height="35.8047" rx="2.5" ry="2.5" style="stroke:#000000;stroke-width:1;" width="118.6714" x="399.66" y="494.2086"/><polygon fill="#FFFFFF" points="501.3314,499.2086,501.3314,513.2086,513.3314,513.2086,513.3314,505.2086,507.3314,499.2086,501.3314,499.2086" style="stroke:#000000;stroke-width:1;"/><line style="stroke:#000000;stroke-width:1;" x1="507.3314" x2="507.3314" y1="499.2086" y2="505.2086"/><line style="stroke:#000000;stroke-width:1;" x1="513.3314" x2="507.3314" y1="505.2086" y2="505.2086"/><text fill="#000000" font-family="Verdana" font-size="11" lengthAdjust="spacing" textLength="88.6714" x="409.66" y="517.419">main-service.jar</text></g><!--entity chat_jar--><g class="entity" data-entity="chat_jar" data-source-line="30" data-uid="ent0012" id="entity_chat_jar"><rect fill="#FFFFFF" height="35.8047" rx="2.5" ry="2.5" style="stroke:#000000;stroke-width:1;" width="115.2607" x="849.37" y="494.2086"/><polygon fill="#FFFFFF" points="947.6307,499.2086,947.6307,513.2086,959.6307,513.2086,959.6307,505.2086,953.6307,499.2086,947.6307,499.2086" style="stroke:#000000;stroke-width:1;"/><line style="stroke:#000000;stroke-width:1;" x1="953.6307" x2="953.6307" y1="499.2086" y2="505.2086"/><line style="stroke:#000000;stroke-width:1;" x1="959.6307" x2="953.6307" y1="505.2086" y2="505.2086"/><text fill="#000000" font-family="Verdana" font-size="11" lengthAdjust="spacing" textLength="85.2607" x="859.37" y="517.419">chat-service.jar</text></g><!--entity notification_jar--><g class="entity" data-entity="notification_jar" data-source-line="34" data-uid="ent0014" id="entity_notification_jar"><rect fill="#FFFFFF" height="35.8047" rx="2.5" ry="2.5" style="stroke:#000000;stroke-width:1;" width="153.0464" x="1072.48" y="494.2086"/><polygon fill="#FFFFFF" points="1208.5264,499.2086,1208.5264,513.2086,1220.5264,513.2086,1220.5264,505.2086,1214.5264,499.2086,1208.5264,499.2086" style="stroke:#000000;stroke-width:1;"/><line style="stroke:#000000;stroke-width:1;" x1="1214.5264" x2="1214.5264" y1="499.2086" y2="505.2086"/><line style="stroke:#000000;stroke-width:1;" x1="1220.5264" x2="1214.5264" y1="505.2086" y2="505.2086"/><text fill="#000000" font-family="Verdana" font-size="11" lengthAdjust="spacing" textLength="123.0464" x="1082.48" y="517.419">notification-service.jar</text></g><!--entity search_jar--><g class="entity" data-entity="search_jar" data-source-line="38" data-uid="ent0016" id="entity_search_jar"><rect fill="#FFFFFF" height="35.8047" rx="2.5" ry="2.5" style="stroke:#000000;stroke-width:1;" width="127.9688" x="1333.02" y="494.2086"/><polygon fill="#FFFFFF" points="1443.9888,499.2086,1443.9888,513.2086,1455.9888,513.2086,1455.9888,505.2086,1449.9888,499.2086,1443.9888,499.2086" style="stroke:#000000;stroke-width:1;"/><line style="stroke:#000000;stroke-width:1;" x1="1449.9888" x2="1449.9888" y1="499.2086" y2="505.2086"/><line style="stroke:#000000;stroke-width:1;" x1="1455.9888" x2="1449.9888" y1="505.2086" y2="505.2086"/><text fill="#000000" font-family="Verdana" font-size="11" lengthAdjust="spacing" textLength="97.9688" x="1343.02" y="517.419">search-service.jar</text></g><!--entity authdb--><g class="entity" data-entity="authdb" data-source-line="42" data-uid="ent0018" id="entity_authdb"><rect fill="#FFFFFF" height="32.8047" rx="35" ry="35" style="stroke:#000000;stroke-width:1;" width="58.9619" x="66.52" y="683.0186"/><text fill="#000000" font-family="Verdana" font-size="11" lengthAdjust="spacing" textLength="38.9619" x="76.52" y="703.229">authdb</text></g><!--entity maindb--><g class="entity" data-entity="maindb" data-source-line="43" data-uid="ent0019" id="entity_maindb"><rect fill="#FFFFFF" height="32.8047" rx="35" ry="35" style="stroke:#000000;stroke-width:1;" width="61.4487" x="160.28" y="683.0186"/><text fill="#000000" font-family="Verdana" font-size="11" lengthAdjust="spacing" textLength="41.4487" x="170.28" y="703.229">maindb</text></g><!--entity chatdb--><g class="entity" data-entity="chatdb" data-source-line="47" data-uid="ent0021" id="entity_chatdb"><rect fill="#FFFFFF" height="32.8047" rx="35" ry="35" style="stroke:#000000;stroke-width:1;" width="87.4448" x="869.28" y="683.0186"/><text fill="#000000" font-family="Verdana" font-size="11" lengthAdjust="spacing" textLength="67.4448" x="879.28" y="703.229">chat-service</text></g><!--entity searchindex--><g class="entity" data-entity="searchindex" data-source-line="51" data-uid="ent0023" id="entity_searchindex"><rect fill="#FFFFFF" height="32.8047" rx="35" ry="35" style="stroke:#000000;stroke-width:1;" width="91.0381" x="1613.48" y="683.0186"/><text fill="#000000" font-family="Verdana" font-size="11" lengthAdjust="spacing" textLength="71.0381" x="1623.48" y="703.229">search-index</text></g><!--entity cache--><g class="entity" data-entity="cache" data-source-line="55" data-uid="ent0025" id="entity_cache"><rect fill="#FFFFFF" height="32.8047" rx="35" ry="35" style="stroke:#000000;stroke-width:1;" width="52.5757" x="328.71" y="683.0186"/><text fill="#000000" font-family="Verdana" font-size="11" lengthAdjust="spacing" textLength="32.5757" x="338.71" y="703.229">cache</text></g><!--entity onlineusers--><g class="entity" data-entity="onlineusers" data-source-line="56" data-uid="ent0026" id="entity_onlineusers"><rect fill="#FFFFFF" height="32.8047" rx="35" ry="35" style="stroke:#000000;stroke-width:1;" width="87.2461" x="416.38" y="683.0186"/><text fill="#000000" font-family="Verdana" font-size="11" lengthAdjust="spacing" textLength="67.2461" x="426.38" y="703.229">online-users</text></g><!--entity zookeeper--><g class="entity" data-entity="zookeeper" data-source-line="60" data-uid="ent0028" id="entity_zookeeper"><rect fill="#FFFFFF" height="55.6094" rx="2.5" ry="2.5" style="stroke:#000000;stroke-width:1;" width="99.1733" x="1083.41" y="819.6386"/><rect fill="#FFFFFF" height="10" style="stroke:#000000;stroke-width:1;" width="15" x="1162.5833" y="824.6386"/><rect fill="#FFFFFF" height="2" style="stroke:#000000;stroke-width:1;" width="4" x="1160.5833" y="826.6386"/><rect fill="#FFFFFF" height="2" style="stroke:#000000;stroke-width:1;" width="4" x="1160.5833" y="830.6386"/><text fill="#000000" font-family="Verdana" font-size="11" lengthAdjust="spacing" textLength="59.1733" x="1098.41" y="849.849">Zookeeper</text><text fill="#000000" font-family="Verdana" font-size="11" lengthAdjust="spacing" textLength="31.7002" x="1098.41" y="862.6537">:2181</text></g><!--entity broker--><g class="entity" data-entity="broker" data-source-line="61" data-uid="ent0029" id="entity_broker"><rect fill="#FFFFFF" height="55.6094" rx="2.5" ry="2.5" style="stroke:#000000;stroke-width:1;" width="110.8931" x="1077.55" y="671.6186"/><rect fill="#FFFFFF" height="10" style="stroke:#000000;stroke-width:1;" width="15" x="1168.4431" y="676.6186"/><rect fill="#FFFFFF" height="2" style="stroke:#000000;stroke-width:1;" width="4" x="1166.4431" y="678.6186"/><rect fill="#FFFFFF" height="2" style="stroke:#000000;stroke-width:1;" width="4" x="1166.4431" y="682.6186"/><text fill="#000000" font-family="Verdana" font-size="11" lengthAdjust="spacing" textLength="70.8931" x="1092.55" y="701.829">Kafka Broker</text><text fill="#000000" font-family="Verdana" font-size="11" lengthAdjust="spacing" textLength="38.6987" x="1092.55" y="714.6337">:29092</text></g><!--entity elk_es--><g class="entity" data-entity="elk_es" data-source-line="65" data-uid="ent0031" id="entity_elk_es"><rect fill="#FFFFFF" height="55.6094" rx="2.5" ry="2.5" style="stroke:#000000;stroke-width:1;" width="112.6763" x="1343.66" y="819.6386"/><rect fill="#FFFFFF" height="10" style="stroke:#000000;stroke-width:1;" width="15" x="1436.3363" y="824.6386"/><rect fill="#FFFFFF" height="2" style="stroke:#000000;stroke-width:1;" width="4" x="1434.3363" y="826.6386"/><rect fill="#FFFFFF" height="2" style="stroke:#000000;stroke-width:1;" width="4" x="1434.3363" y="830.6386"/><text fill="#000000" font-family="Verdana" font-size="11" lengthAdjust="spacing" textLength="72.6763" x="1358.66" y="849.849">Elasticsearch</text><text fill="#000000" font-family="Verdana" font-size="11" lengthAdjust="spacing" textLength="31.7002" x="1358.66" y="862.6537">:9201</text></g><!--entity logstash--><g class="entity" data-entity="logstash" data-source-line="66" data-uid="ent0032" id="entity_logstash"><rect fill="#FFFFFF" height="55.6094" rx="2.5" ry="2.5" style="stroke:#000000;stroke-width:1;" width="89.3281" x="1303.34" y="671.6186"/><rect fill="#FFFFFF" height="10" style="stroke:#000000;stroke-width:1;" width="15" x="1372.6681" y="676.6186"/><rect fill="#FFFFFF" height="2" style="stroke:#000000;stroke-width:1;" width="4" x="1370.6681" y="678.6186"/><rect fill="#FFFFFF" height="2" style="stroke:#000000;stroke-width:1;" width="4" x="1370.6681" y="682.6186"/><text fill="#000000" font-family="Verdana" font-size="11" lengthAdjust="spacing" textLength="49.3281" x="1318.34" y="701.829">Logstash</text><text fill="#000000" font-family="Verdana" font-size="11" lengthAdjust="spacing" textLength="31.7002" x="1318.34" y="714.6337">:5000</text></g><!--entity kibana--><g class="entity" data-entity="kibana" data-source-line="67" data-uid="ent0033" id="entity_kibana"><rect fill="#FFFFFF" height="55.6094" rx="2.5" ry="2.5" style="stroke:#000000;stroke-width:1;" width="77.7051" x="1428.15" y="671.6186"/><rect fill="#FFFFFF" height="10" style="stroke:#000000;stroke-width:1;" width="15" x="1485.8551" y="676.6186"/><rect fill="#FFFFFF" height="2" style="stroke:#000000;stroke-width:1;" width="4" x="1483.8551" y="678.6186"/><rect fill="#FFFFFF" height="2" style="stroke:#000000;stroke-width:1;" width="4" x="1483.8551" y="682.6186"/><text fill="#000000" font-family="Verdana" font-size="11" lengthAdjust="spacing" textLength="37.7051" x="1443.15" y="701.829">Kibana</text><text fill="#000000" font-family="Verdana" font-size="11" lengthAdjust="spacing" textLength="31.7002" x="1443.15" y="714.6337">:5601</text></g><!--entity web--><g class="entity" data-entity="web" data-source-line="72" data-uid="ent0035" id="entity_web"><ellipse cx="949.0041" cy="97.6086" fill="#FFFFFF" rx="8" ry="8" style="stroke:#000000;stroke-width:1;"/><path d="M949.0041,105.6086 L949.0041,132.6086 M936.0041,113.6086 L962.0041,113.6086 M949.0041,132.6086 L936.0041,147.6086 M949.0041,132.6086 L962.0041,147.6086" fill="none" style="stroke:#000000;stroke-width:1;"/><text fill="#000000" font-family="Verdana" font-size="11" lengthAdjust="spacing" textLength="59.9683" x="919.02" y="159.819">Web Client</text></g><!--entity mobile--><g class="entity" data-entity="mobile" data-source-line="73" data-uid="ent0036" id="entity_mobile"><ellipse cx="1050.0024" cy="97.6086" fill="#FFFFFF" rx="8" ry="8" style="stroke:#000000;stroke-width:1;"/><path d="M1050.0024,105.6086 L1050.0024,132.6086 M1037.0024,113.6086 L1063.0024,113.6086 M1050.0024,132.6086 L1037.0024,147.6086 M1050.0024,132.6086 L1063.0024,147.6086" fill="none" style="stroke:#000000;stroke-width:1;"/><text fill="#000000" font-family="Verdana" font-size="11" lengthAdjust="spacing" textLength="71.4248" x="1014.29" y="159.819">Mobile Client</text></g><g class="entity" data-entity="GMN68" data-source-line="121" data-uid="ent0069" id="entity_GMN68"><path d="M1796.32,662.4086 L1796.32,736.432 L1927.6745,736.432 L1927.6745,672.4086 L1917.6745,662.4086 L1796.32,662.4086" fill="#FFFFFF" style="stroke:#000000;stroke-width:1;"/><path d="M1917.6745,662.4086 L1917.6745,672.4086 L1927.6745,672.4086 L1917.6745,662.4086" fill="#FFFFFF" style="stroke:#000000;stroke-width:1;"/><text fill="#000000" font-family="Verdana" font-size="11" font-weight="bold" lengthAdjust="spacing" textLength="99.6553" x="1802.32" y="677.619">Message Broker</text><text fill="#000000" font-family="Verdana" font-size="11" lengthAdjust="spacing" textLength="38.9727" x="1802.32" y="690.4237">Topics:</text><text fill="#000000" font-family="Verdana" font-size="11" lengthAdjust="spacing" textLength="110.3545" x="1802.32" y="703.2284">- notification-events</text><text fill="#000000" font-family="Verdana" font-size="11" lengthAdjust="spacing" textLength="72.252" x="1802.32" y="716.0331">- post-events</text><text fill="#000000" font-family="Verdana" font-size="11" lengthAdjust="spacing" textLength="100.7563" x="1802.32" y="728.8378">- comment-events</text></g><g class="entity" data-entity="GMN71" data-source-line="129" data-uid="ent0072" id="entity_GMN71"><path d="M1962.6,662.4086 L1962.6,736.432 L2095.3993,736.432 L2095.3993,672.4086 L2085.3993,662.4086 L1962.6,662.4086" fill="#FFFFFF" style="stroke:#000000;stroke-width:1;"/><path d="M2085.3993,662.4086 L2085.3993,672.4086 L2095.3993,672.4086 L2085.3993,662.4086" fill="#FFFFFF" style="stroke:#000000;stroke-width:1;"/><text fill="#000000" font-family="Verdana" font-size="11" font-weight="bold" lengthAdjust="spacing" textLength="95.7988" x="1968.6" y="677.619">Relational Data</text><text fill="#000000" font-family="Verdana" font-size="11" lengthAdjust="spacing" textLength="85.5884" x="1968.6" y="690.4237">- User accounts</text><text fill="#000000" font-family="Verdana" font-size="11" lengthAdjust="spacing" textLength="111.7993" x="1968.6" y="703.2284">- Posts &amp; Comments</text><text fill="#000000" font-family="Verdana" font-size="11" lengthAdjust="spacing" textLength="70.5654" x="1968.6" y="716.0331">- Friendships</text><text fill="#000000" font-family="Verdana" font-size="11" lengthAdjust="spacing" textLength="73.627" x="1968.6" y="728.8378">- Auth tokens</text></g><g class="entity" data-entity="GMN74" data-source-line="137" data-uid="ent0075" id="entity_GMN74"><path d="M2130.6,668.8086 L2130.6,730.0273 L2251.3949,730.0273 L2251.3949,678.8086 L2241.3949,668.8086 L2130.6,668.8086" fill="#FFFFFF" style="stroke:#000000;stroke-width:1;"/><path d="M2241.3949,668.8086 L2241.3949,678.8086 L2251.3949,678.8086 L2241.3949,668.8086" fill="#FFFFFF" style="stroke:#000000;stroke-width:1;"/><text fill="#000000" font-family="Verdana" font-size="11" font-weight="bold" lengthAdjust="spacing" textLength="93.2207" x="2136.6" y="684.019">Chat Messages</text><text fill="#000000" font-family="Verdana" font-size="11" lengthAdjust="spacing" textLength="97.0073" x="2136.6" y="696.8237">- Message history</text><text fill="#000000" font-family="Verdana" font-size="11" lengthAdjust="spacing" textLength="85.9214" x="2136.6" y="709.6284">- Conversations</text><text fill="#000000" font-family="Verdana" font-size="11" lengthAdjust="spacing" textLength="99.7949" x="2136.6" y="722.4331">- File attachments</text></g><g class="entity" data-entity="GMN77" data-source-line="144" data-uid="ent0078" id="entity_GMN77"><path d="M2286.12,662.4086 L2286.12,736.432 L2427.8783,736.432 L2427.8783,672.4086 L2417.8783,662.4086 L2286.12,662.4086" fill="#FFFFFF" style="stroke:#000000;stroke-width:1;"/><path d="M2417.8783,662.4086 L2417.8783,672.4086 L2427.8783,672.4086 L2417.8783,662.4086" fill="#FFFFFF" style="stroke:#000000;stroke-width:1;"/><text fill="#000000" font-family="Verdana" font-size="11" font-weight="bold" lengthAdjust="spacing" textLength="120.7583" x="2292.12" y="677.619">Caching &amp; Sessions</text><text fill="#000000" font-family="Verdana" font-size="11" lengthAdjust="spacing" textLength="82.4839" x="2292.12" y="690.4237">- User sessions</text><text fill="#000000" font-family="Verdana" font-size="11" lengthAdjust="spacing" textLength="118.9375" x="2292.12" y="703.2284">- Online user tracking</text><text fill="#000000" font-family="Verdana" font-size="11" lengthAdjust="spacing" textLength="76.9678" x="2292.12" y="716.0331">- Query cache</text><text fill="#000000" font-family="Verdana" font-size="11" lengthAdjust="spacing" textLength="77.6338" x="2292.12" y="728.8378">- Rate limiting</text></g><g class="entity" data-entity="GMN80" data-source-line="152" data-uid="ent0081" id="entity_GMN80"><path d="M1796.32,810.4286 L1796.32,884.452 L1941.6877,884.452 L1941.6877,820.4286 L1931.6877,810.4286 L1796.32,810.4286" fill="#FFFFFF" style="stroke:#000000;stroke-width:1;"/><path d="M1931.6877,810.4286 L1931.6877,820.4286 L1941.6877,820.4286 L1931.6877,810.4286" fill="#FFFFFF" style="stroke:#000000;stroke-width:1;"/><text fill="#000000" font-family="Verdana" font-size="11" font-weight="bold" lengthAdjust="spacing" textLength="124.3677" x="1802.32" y="825.639">Centralized Logging</text><text fill="#000000" font-family="Verdana" font-size="11" lengthAdjust="spacing" textLength="97.5928" x="1802.32" y="838.4437">- Log aggregation</text><text fill="#000000" font-family="Verdana" font-size="11" lengthAdjust="spacing" textLength="124.04" x="1802.32" y="851.2484">- Real-time monitoring</text><text fill="#000000" font-family="Verdana" font-size="11" lengthAdjust="spacing" textLength="79.9702" x="1802.32" y="864.0531">- Log analytics</text><text fill="#000000" font-family="Verdana" font-size="11" lengthAdjust="spacing" textLength="96.7012" x="1802.32" y="876.8578">- Troubleshooting</text></g><!--link web to gateway--><g class="link" data-entity-1="web" data-entity-2="gateway" data-source-line="77" data-uid="lnk37" id="link_web_gateway"><path d="M945.44,162.7586 C945.8,178.2986 948.93,195.7386 959,208.4086 C965.48,216.5486 974.42,208.3486 981,216.4086 C990.0075,227.4511 995.7325,240.8654 999.245,254.8154 C1000.1231,258.3029 1000.863,261.8239 1001.4812,265.3497 C1001.7904,267.1126 1002.0691,268.8766 1002.3196,270.6383 C1002.3509,270.8585 1001.5603,265.1352 1001.5907,265.3553" fill="none" id="web-to-gateway" style="stroke:#000000;stroke-width:1;"/><polygon fill="#000000" points="1002.4122,271.2988,1005.1423,261.8359,1001.7276,266.3459,997.2176,262.9313,1002.4122,271.2988" style="stroke:#000000;stroke-width:1;"/><text fill="#000000" font-family="Verdana" font-size="11" lengthAdjust="spacing" textLength="63.5239" x="960" y="205.619">HTTPS :443</text></g><!--link mobile to gateway--><g class="link" data-entity-1="mobile" data-entity-2="gateway" data-source-line="78" data-uid="lnk38" id="link_mobile_gateway"><path d="M1041.74,162.6386 C1034.75,193.2236 1024.53,237.9536 1015.9525,275.4948 C1013.8081,284.8801 1011.7664,293.8161 1009.9035,301.9695 C1009.4377,304.0079 1008.9832,305.9973 1008.541,307.9326 C1008.4304,308.4164 1008.3207,308.8969 1008.2117,309.3739 C1008.1572,309.6123 1009.4394,304.0007 1009.3853,304.2375" fill="none" id="mobile-to-gateway" style="stroke:#000000;stroke-width:1;"/><polygon fill="#000000" points="1008.0488,310.0867,1013.953,302.2038,1009.1625,305.2123,1006.154,300.4218,1008.0488,310.0867" style="stroke:#000000;stroke-width:1;"/><text fill="#000000" font-family="Verdana" font-size="11" lengthAdjust="spacing" textLength="63.5239" x="1034.83" y="205.619">HTTPS :443</text></g><!--link gateway to eureka--><g class="link" data-entity-1="gateway" data-entity-2="eureka" data-source-line="81" data-uid="lnk39" id="link_gateway_eureka"><path d="M993.1317,388.3746 C993.0899,388.4668 993.048,388.5589 993.0058,388.6509 C992.9214,388.8349 992.8359,389.0183 992.7495,389.2012 C989.9844,395.0548 986.1925,400.3711 981,404.2086 C965.43,415.7286 297.53,407.3486 284,421.2086 C229.75,476.7986 246.29,570.7686 321,592.0186 C345.05,598.8586 751.86,583.9286 771,600.0186 C775.1963,603.5448 778.6475,607.6931 781.4736,612.2569 C782.8866,614.5389 784.1433,616.9247 785.2587,619.3886 C785.8164,620.6205 786.3388,621.872 786.8277,623.1398 C786.9499,623.4567 784.9869,618.1479 785.105,618.4668" fill="none" id="gateway-to-eureka" style="stroke:#000000;stroke-width:1;stroke-dasharray:7,7;"/><polygon fill="#000000" points="787.1881,624.0936,787.8146,614.2647,785.4522,619.4046,780.3122,617.0422,787.1881,624.0936" style="stroke:#000000;stroke-width:1;"/><text fill="#000000" font-family="Verdana" font-size="11" lengthAdjust="spacing" textLength="98.4951" x="285" y="516.329">Service Discovery</text></g><!--link auth to eureka--><g class="link" data-entity-1="auth" data-entity-2="eureka" data-source-line="82" data-uid="lnk40" id="link_auth_eureka"><path d="M770.1402,554.1975 C770.0985,554.2897 770.0565,554.3817 770.0143,554.4737 C769.9298,554.6576 769.8444,554.841 769.758,555.0239 C766.9919,560.8761 763.1975,566.1886 758,570.0186 C741.54,582.1486 404.3,563.3986 390,578.0186 C385.65,582.4686 385.65,587.5686 390,592.0186 C404.81,607.1486 754.81,586.3686 771,600.0186 C775.19,603.5511 778.6366,607.704 781.4592,612.2713 C782.8705,614.5549 784.1259,616.9421 785.2401,619.4072 C785.7973,620.6397 786.3192,621.8916 786.8077,623.1598 C786.9298,623.4768 784.9687,618.1674 785.0867,618.4864" fill="none" id="auth-to-eureka" style="stroke:#000000;stroke-width:1;stroke-dasharray:7,7;"/><polygon fill="#000000" points="787.1678,624.1139,787.7978,614.2852,785.4336,619.4243,780.2945,617.0601,787.1678,624.1139" style="stroke:#000000;stroke-width:1;"/><text fill="#000000" font-family="Verdana" font-size="11" lengthAdjust="spacing" textLength="45.7832" x="391" y="589.229">Register</text></g><!--link main to eureka--><g class="link" data-entity-1="main" data-entity-2="eureka" data-source-line="83" data-uid="lnk41" id="link_main_eureka"><path d="M546.3449,554.1489 C546.3016,554.2411 546.2582,554.3333 546.2145,554.4253 C546.127,554.6094 546.0386,554.793 545.9492,554.9761 C543.0887,560.8342 539.2225,566.1611 534,570.0186 C515.93,583.3686 347.57,561.8286 332,578.0186 C327.69,582.5086 327.64,587.5786 332,592.0186 C349.09,609.4186 752.33,584.3186 771,600.0186 C775.195,603.5461 778.6453,607.6953 781.4707,612.2598 C782.8834,614.5421 784.1398,616.9282 785.255,619.3923 C785.8126,620.6244 786.3349,621.8759 786.8237,623.1438 C786.9459,623.4607 784.9833,618.1518 785.1013,618.4708" fill="none" id="main-to-eureka" style="stroke:#000000;stroke-width:1;stroke-dasharray:7,7;"/><polygon fill="#000000" points="787.1841,624.0977,787.8112,614.2688,785.4484,619.4086,780.3087,617.0458,787.1841,624.0977" style="stroke:#000000;stroke-width:1;"/><text fill="#000000" font-family="Verdana" font-size="11" lengthAdjust="spacing" textLength="45.7832" x="333" y="589.229">Register</text></g><!--link chat to eureka--><g class="link" data-entity-1="chat" data-entity-2="eureka" data-source-line="84" data-uid="lnk42" id="link_chat_eureka"><path d="M993.1445,554.2017 C993.1028,554.2939 993.0608,554.386 993.0185,554.4779 C992.9341,554.6618 992.8486,554.8452 992.7622,555.0281 C989.9956,560.8798 986.2,566.1911 981,570.0186 C963.32,583.0286 601.36,562.3386 586,578.0186 C581.64,582.4586 581.7,587.5286 586,592.0186 C600.23,606.8786 755.42,586.5786 771,600.0186 C775.15,603.5973 778.5664,607.7853 781.3669,612.3784 C782.7672,614.6749 784.0134,617.0727 785.1205,619.5463 C785.674,620.783 786.1927,622.0388 786.6784,623.3102 C786.7998,623.6281 784.8524,618.3142 784.9697,618.634" fill="none" id="chat-to-eureka" style="stroke:#000000;stroke-width:1;stroke-dasharray:7,7;"/><polygon fill="#000000" points="787.0365,624.2668,787.6916,614.4397,785.3142,619.5728,780.1812,617.1954,787.0365,624.2668" style="stroke:#000000;stroke-width:1;"/><text fill="#000000" font-family="Verdana" font-size="11" lengthAdjust="spacing" textLength="45.7832" x="587" y="589.229">Register</text></g><!--link notification to eureka--><g class="link" data-entity-1="notification" data-entity-2="eureka" data-source-line="85" data-uid="lnk43" id="link_notification_eureka"><path d="M1254.1659,554.2274 C1254.1241,554.3196 1254.0821,554.4116 1254.0399,554.5035 C1253.9553,554.6873 1253.8698,554.8706 1253.7833,555.0534 C1251.0144,560.9023 1247.2125,566.2061 1242,570.0186 C1217.79,587.7386 723.06,556.6486 702,578.0186 C697.63,582.4486 697.86,587.3686 702,592.0186 C712.27,603.5486 759.68,589.5186 771,600.0186 C775.0188,603.7448 778.3363,608.0439 781.0642,612.7184 C782.4282,615.0556 783.6448,617.4867 784.728,619.987 C785.2696,621.2372 785.7778,622.5046 786.2544,623.7862 C786.314,623.9465 784.3171,618.4701 784.3757,618.6308" fill="none" id="notification-to-eureka" style="stroke:#000000;stroke-width:1;stroke-dasharray:7,7;"/><polygon fill="#000000" points="786.4317,624.2675,787.1056,614.4418,784.7184,619.5702,779.5899,617.183,786.4317,624.2675" style="stroke:#000000;stroke-width:1;"/><text fill="#000000" font-family="Verdana" font-size="11" lengthAdjust="spacing" textLength="45.7832" x="703" y="589.229">Register</text></g><!--link search to eureka--><g class="link" data-entity-1="search" data-entity-2="eureka" data-source-line="86" data-uid="lnk44" id="link_search_eureka"><path d="M1489.1359,554.1932 C1489.0942,554.2854 1489.0522,554.3775 1489.01,554.4694 C1488.9256,554.6533 1488.8402,554.8368 1488.7537,555.0197 C1485.9881,560.8723 1482.195,566.1861 1477,570.0186 C1461.26,581.6286 1144.18,574.1886 1125,578.0186 C1108.16,581.3786 1105.82,588.5686 1089,592.0186 C1063.3,597.2886 875.8,587.0386 853,600.0186 C830.79,612.6636 815.1825,636.6986 805.0575,657.8486 C802.5263,663.1361 800.3377,668.2433 798.4742,672.9471 C798.3578,673.2411 800.4314,667.947 800.3174,668.2378" fill="none" id="search-to-eureka" style="stroke:#000000;stroke-width:1;stroke-dasharray:7,7;"/><polygon fill="#000000" points="798.1286,673.8243,805.1362,666.9037,799.9526,669.1688,797.6875,663.9853,798.1286,673.8243" style="stroke:#000000;stroke-width:1;"/><text fill="#000000" font-family="Verdana" font-size="11" lengthAdjust="spacing" textLength="45.7832" x="1126" y="589.229">Register</text></g><!--link gateway to auth--><g class="link" data-entity-1="gateway" data-entity-2="auth" data-source-line="89" data-uid="lnk45" id="link_gateway_auth"><path d="M992.6957,388.2515 C992.6124,388.4368 992.5281,388.6217 992.4428,388.8061 C989.715,394.7067 986.015,400.1411 981,404.2086 C929.58,445.9186 888.95,385.8186 833,421.2086 C813.42,433.5986 799.5475,455.5711 790.5075,474.6923 C789.3775,477.0825 788.323,479.4281 787.3423,481.7049 C786.852,482.8432 786.3801,483.9644 785.9264,485.0653 C785.6996,485.6158 785.4773,486.1612 785.2596,486.7012 C785.2051,486.8362 787.3846,481.4021 787.3307,481.5364" fill="none" id="gateway-to-auth" style="stroke:#000000;stroke-width:1;"/><polygon fill="#000000" points="785.0971,487.1051,792.16,480.241,786.9584,482.4645,784.735,477.2629,785.0971,487.1051" style="stroke:#000000;stroke-width:1;"/></g><!--link gateway to main--><g class="link" data-entity-1="gateway" data-entity-2="main" data-source-line="90" data-uid="lnk46" id="link_gateway_main"><path d="M993.0617,388.279 C993.0201,388.3713 992.9782,388.4636 992.9361,388.5557 C992.8519,388.74 992.7668,388.9237 992.6806,389.107 C989.9238,394.9717 986.1525,400.3161 981,404.2086 C972.77,410.4286 618.9,415.9986 610,421.2086 C590.005,432.9186 576.1275,454.8811 567.1888,474.1673 C566.0714,476.5781 565.0312,478.9471 564.0659,481.249 C563.5833,482.3999 563.1193,483.5341 562.6738,484.6484 C562.4511,485.2055 564.416,480.1689 564.2024,480.7156" fill="none" id="gateway-to-main" style="stroke:#000000;stroke-width:1;"/><polygon fill="#000000" points="562.0193,486.3044,569.0198,479.3766,563.8385,481.6471,561.5681,476.4659,562.0193,486.3044" style="stroke:#000000;stroke-width:1;"/></g><!--link gateway to chat--><g class="link" data-entity-1="gateway" data-entity-2="chat" data-source-line="91" data-uid="lnk47" id="link_gateway_chat"><path d="M1000,389.0042 C1000,389.2783 1000,389.5532 1000,389.8288 C1000,390.9315 1000,392.0466 1000,393.1731 C1000,395.4261 1000,397.7246 1000,400.0594 C1000,409.3986 1000,419.3195 1000,429.2398 C1000,431.7199 1000,434.1999 1000,436.6709 C1000,436.8253 1000,430.9797 1000,431.134" fill="none" id="gateway-to-chat" style="stroke:#000000;stroke-width:1;"/><polygon fill="#000000" points="1000,437.134,1004,428.134,1000,432.134,996,428.134,1000,437.134" style="stroke:#000000;stroke-width:1;"/></g><!--link gateway to notification--><g class="link" data-entity-1="gateway" data-entity-2="notification" data-source-line="92" data-uid="lnk48" id="link_gateway_notification"><path d="M1008.4286,347.0676 C1008.5829,347.0652 1008.7391,347.063 1008.8973,347.0608 C1013.9584,346.9908 1020.9959,346.9962 1029.5325,347.2651 C1046.6056,347.8029 1069.675,349.3948 1094.9225,353.5461 C1145.4175,361.8486 1204.625,380.3886 1242,421.2086 C1245.3938,424.9161 1248.24,429.0725 1250.6221,433.5112 C1251.2176,434.6208 1249.2246,430.3215 1249.7634,431.4639" fill="none" id="gateway-to-notification" style="stroke:#000000;stroke-width:1;"/><polygon fill="#000000" points="1252.323,436.8905,1252.1014,427.0441,1250.19,432.3683,1244.8658,430.4569,1252.323,436.8905" style="stroke:#000000;stroke-width:1;"/></g><!--link gateway to search--><g class="link" data-entity-1="gateway" data-entity-2="search" data-source-line="93" data-uid="lnk49" id="link_gateway_search"><path d="M1008.2685,347.3581 C1009.2432,347.3669 1010.299,347.3771 1011.4333,347.3892 C1013.7019,347.4134 1016.2843,347.4448 1019.1591,347.4857 C1030.6584,347.6493 1046.8359,347.964 1066.3173,348.5701 C1105.2803,349.7823 1157.4594,352.1598 1211.8613,356.8236 C1320.665,366.1511 1438.36,384.6236 1477,421.2086 C1480.6488,424.6648 1483.6872,428.6317 1486.2103,432.9312 C1486.841,434.0061 1487.4396,435.1018 1488.0074,436.2154 C1488.1494,436.4938 1485.6395,431.3903 1485.7777,431.6709" fill="none" id="gateway-to-search" style="stroke:#000000;stroke-width:1;"/><polygon fill="#000000" points="1488.4276,437.054,1488.0415,427.2127,1486.2193,432.5681,1480.864,430.7459,1488.4276,437.054" style="stroke:#000000;stroke-width:1;"/></g><!--link auth to postgres--><g class="link" data-entity-1="auth" data-entity-2="postgres" data-source-line="96" data-uid="lnk50" id="link_auth_postgres"><path d="M770.1573,554.2189 C770.1156,554.311 770.0736,554.4031 770.0313,554.495 C769.9468,554.6788 769.8613,554.8622 769.7748,555.045 C767.0069,560.8948 763.2075,566.2011 758,570.0186 C736.63,585.6886 301.35,561.0386 281,578.0186 C270.69,586.6211 264.0013,598.2811 259.7758,610.9728 C259.2476,612.5593 260.3801,608.3853 259.9267,610" fill="none" id="auth-to-postgres" style="stroke:#000000;stroke-width:1;"/><polygon fill="#000000" points="258.3044,615.7766,264.5888,608.1933,259.6563,610.9628,256.8867,606.0303,258.3044,615.7766" style="stroke:#000000;stroke-width:1;"/><text fill="#000000" font-family="Verdana" font-size="11" lengthAdjust="spacing" textLength="38.9619" x="282" y="589.229">authdb</text></g><!--link main to postgres--><g class="link" data-entity-1="main" data-entity-2="postgres" data-source-line="97" data-uid="lnk51" id="link_main_postgres"><path d="M546.4149,554.2503 C546.3715,554.3424 546.3279,554.4344 546.2841,554.5263 C546.1964,554.71 546.1078,554.8932 546.0181,555.0759 C543.1494,560.9217 539.2625,566.2186 534,570.0186 C513.91,584.5286 105.37,560.3386 88,578.0186 C83.64,582.4586 83.72,587.4986 88,592.0186 C99.48,604.1286 225.42,589.0586 238,600.0186 C242.1325,603.6186 245.5356,607.8225 248.3263,612.4272 C249.024,613.5783 246.9155,609.4311 247.5384,610.6292" fill="none" id="main-to-postgres" style="stroke:#000000;stroke-width:1;"/><polygon fill="#000000" points="250.3063,615.9527,249.7034,606.1223,247.9997,611.5165,242.6055,609.8128,250.3063,615.9527" style="stroke:#000000;stroke-width:1;"/><text fill="#000000" font-family="Verdana" font-size="11" lengthAdjust="spacing" textLength="41.4487" x="89" y="589.229">maindb</text></g><!--link chat to mongo--><g class="link" data-entity-1="chat" data-entity-2="mongo" data-source-line="98" data-uid="lnk52" id="link_chat_mongo"><path d="M993.0916,554.1317 C993.05,554.2241 993.0081,554.3162 992.9659,554.4083 C992.8817,554.5924 992.7964,554.7761 992.7102,554.9592 C989.95,560.8192 986.17,566.1511 981,570.0186 C961.33,584.7386 777.06,560.3286 760,578.0186 C755.68,582.4986 755.68,587.5386 760,592.0186 C776.43,609.0786 955.02,584.5986 973,600.0186 C977.1613,603.5861 980.5861,607.7654 983.3928,612.3521 C984.0944,613.4988 981.9713,609.357 982.5975,610.5514" fill="none" id="chat-to-mongo" style="stroke:#000000;stroke-width:1;"/><polygon fill="#000000" points="985.3837,615.8653,984.747,606.037,983.0619,611.437,977.6618,609.7519,985.3837,615.8653" style="stroke:#000000;stroke-width:1;"/><text fill="#000000" font-family="Verdana" font-size="11" lengthAdjust="spacing" textLength="67.4448" x="761" y="589.229">chat-service</text></g><!--link search to elastic--><g class="link" data-entity-1="search" data-entity-2="elastic" data-source-line="99" data-uid="lnk53" id="link_search_elastic"><path d="M1504.3603,513.5783 C1509.1154,513.91 1515.7241,514.4655 1523.7327,515.3806 C1539.7497,517.2108 1561.3656,520.4792 1584.9488,526.2723 C1632.115,537.8586 1687.15,559.5436 1721,600.0186 C1724.5163,604.2223 1727.4548,608.8814 1729.9047,613.8201 C1730.2109,614.4374 1727.9785,609.6191 1728.2696,610.2448" fill="none" id="search-to-elastic" style="stroke:#000000;stroke-width:1;"/><polygon fill="#000000" points="1730.8007,615.6848,1730.6307,605.8375,1728.6914,611.1515,1723.3774,609.2122,1730.8007,615.6848" style="stroke:#000000;stroke-width:1;"/><text fill="#000000" font-family="Verdana" font-size="11" lengthAdjust="spacing" textLength="71.0381" x="1713.34" y="589.229">search-index</text></g><!--link chat to redis--><g class="link" data-entity-1="chat" data-entity-2="redis" data-source-line="100" data-uid="lnk54" id="link_chat_redis"><path d="M993.1573,554.2189 C993.1156,554.311 993.0736,554.4031 993.0313,554.495 C992.9468,554.6788 992.8613,554.8622 992.7748,555.045 C990.0069,560.8948 986.2075,566.2011 981,570.0186 C959.72,585.6286 524.5,559.1986 506,578.0186 C501.64,582.4586 502.88,586.6386 506,592.0186 C509.6,598.2186 515.83,594.1886 520,600.0186 C523.19,604.4748 525.8827,609.3244 528.1521,614.4029 C528.2939,614.7203 528.4341,615.0386 528.5726,615.3578 C528.6419,615.5174 526.3505,610.1609 526.419,610.3209" fill="none" id="chat-to-redis" style="stroke:#000000;stroke-width:1;"/><polygon fill="#000000" points="528.7792,615.8372,528.9164,605.9893,526.8124,611.2403,521.5614,609.1362,528.7792,615.8372" style="stroke:#000000;stroke-width:1;"/><text fill="#000000" font-family="Verdana" font-size="11" lengthAdjust="spacing" textLength="67.2461" x="507" y="589.229">online-users</text></g><!--link main to redis--><g class="link" data-entity-1="main" data-entity-2="redis" data-source-line="101" data-uid="lnk55" id="link_main_redis"><path d="M546.4091,554.2375 C546.3657,554.3296 546.3222,554.4216 546.2784,554.5135 C546.1907,554.6973 546.1021,554.8805 546.0125,555.0633 C543.145,560.9104 539.26,566.2111 534,570.0186 C516.36,582.7886 157.24,562.4586 142,578.0186 C137.65,582.4586 137.65,587.5686 142,592.0186 C156.69,607.0286 503.94,586.4786 520,600.0186 C524.19,603.5523 527.6366,607.7062 530.4592,612.2742 C531.1649,613.4162 529.0268,609.2799 529.6563,610.4705" fill="none" id="main-to-redis" style="stroke:#000000;stroke-width:1;"/><polygon fill="#000000" points="532.4611,615.7746,531.79,605.9486,530.1238,611.3545,524.7179,609.6882,532.4611,615.7746" style="stroke:#000000;stroke-width:1;"/><text fill="#000000" font-family="Verdana" font-size="11" lengthAdjust="spacing" textLength="32.5757" x="143" y="589.229">cache</text></g><!--link broker to zookeeper--><g class="link" data-entity-1="broker" data-entity-2="zookeeper" data-source-line="104" data-uid="lnk56" id="link_broker_zookeeper"><path d="M1133,727.5486 C1133,753.7686 1133,787.2886 1133,813.4686" fill="none" id="broker-to-zookeeper" style="stroke:#000000;stroke-width:1;"/><polygon fill="#000000" points="1133,819.4686,1137,810.4686,1133,814.4686,1129,810.4686,1133,819.4686" style="stroke:#000000;stroke-width:1;"/></g><!--link main to broker--><g class="link" data-entity-1="main" data-entity-2="broker" data-source-line="105" data-uid="lnk57" id="link_main_broker"><path d="M562.1499,525.9166 C562.2058,525.997 562.2621,526.0776 562.3186,526.1585 C562.4315,526.3203 562.5456,526.483 562.6606,526.6467 C563.1209,527.3015 563.5979,527.9717 564.0911,528.6553 C566.0641,531.3897 568.2978,534.3386 570.7663,537.3761 C580.64,549.5261 594.27,563.0936 610,570.0186 C632.69,580.0086 808.4,574.9486 833,578.0186 C862.32,581.6686 868.75,587.8286 898,592.0186 C922.26,595.4986 985.15,591.1586 1008,600.0186 C1047.66,615.3886 1080.6083,643.6251 1103.9383,667.0751" fill="none" id="main-to-broker" style="stroke:#000000;stroke-width:1;"/><polygon fill="#000000" points="1108.17,671.3286,1104.6581,662.1271,1104.6435,667.784,1098.9867,667.7695,1108.17,671.3286" style="stroke:#000000;stroke-width:1;"/><text fill="#000000" font-family="Verdana" font-size="11" lengthAdjust="spacing" textLength="80.1421" x="899" y="589.229">Publish Events</text></g><!--link notification to broker--><g class="link" data-entity-1="notification" data-entity-2="broker" data-source-line="106" data-uid="lnk58" id="link_notification_broker"><path d="M1254.106,554.1489 C1254.0643,554.2411 1254.0224,554.3333 1253.9802,554.4253 C1253.8959,554.6094 1253.8105,554.793 1253.7242,554.9761 C1250.9619,560.8342 1247.1775,566.1611 1242,570.0186 C1219.62,586.6886 1010.41,557.9786 991,578.0186 C986.67,582.4886 987.67,586.7686 991,592.0186 C995.47,599.0686 1000.9,595.6286 1008,600.0186 C1042.31,621.2086 1073.5904,646.3269 1098.0504,667.3569" fill="none" id="notification-to-broker" style="stroke:#000000;stroke-width:1;"/><polygon fill="#000000" points="1102.6,671.2686,1098.3833,662.368,1098.8086,668.0089,1093.1678,668.4342,1102.6,671.2686" style="stroke:#000000;stroke-width:1;"/><text fill="#000000" font-family="Verdana" font-size="11" lengthAdjust="spacing" textLength="92.3076" x="992" y="589.229">Consume Events</text></g><!--link search to broker--><g class="link" data-entity-1="search" data-entity-2="broker" data-source-line="107" data-uid="lnk59" id="link_search_broker"><path d="M1487.2406,554.1408 C1487.1573,554.3286 1487.0733,554.516 1486.9885,554.7031 C1486.8188,555.0774 1486.646,555.4504 1486.4699,555.8218 C1486.1177,556.5648 1485.7525,557.3018 1485.3738,558.0313 C1484.6165,559.4904 1483.8053,560.9195 1482.9364,562.3062 C1481.1986,565.0797 1479.23,567.6836 1477,570.0186 C1458.25,589.6586 1446.6,586.5786 1420,592.0186 C1395.17,597.0986 1213.83,587.1386 1192,600.0186 C1165.58,615.5986 1151.6486,642.4128 1143.1086,665.7928" fill="none" id="search-to-broker" style="stroke:#000000;stroke-width:1;"/><polygon fill="#000000" points="1141.05,671.4286,1147.8951,664.3473,1142.7655,666.7321,1140.3807,661.6025,1141.05,671.4286" style="stroke:#000000;stroke-width:1;"/><text fill="#000000" font-family="Verdana" font-size="11" lengthAdjust="spacing" textLength="92.3076" x="1468.44" y="589.229">Consume Events</text></g><!--link auth to logstash--><g class="link" data-entity-1="auth" data-entity-2="logstash" data-source-line="110" data-uid="lnk60" id="link_auth_logstash"><path d="M785.1211,525.983 C785.1769,526.0637 785.233,526.1446 785.2894,526.2259 C785.4021,526.3883 785.5158,526.5517 785.6306,526.7161 C786.0897,527.3736 786.5656,528.0464 787.0577,528.7326 C789.0263,531.4775 791.2559,534.4361 793.7213,537.4811 C803.5825,549.6611 817.215,563.2236 833,570.0186 C874.85,588.0286 1201.71,558.7486 1243,578.0186 C1284.6,597.4286 1313.2375,636.8931 1330.4575,666.0331" fill="none" id="auth-to-logstash" style="stroke:#000000;stroke-width:1;stroke-dasharray:7,7;"/><polygon fill="#000000" points="1333.51,671.1986,1332.3749,661.4153,1330.9663,666.894,1325.4876,665.4853,1333.51,671.1986" style="stroke:#000000;stroke-width:1;"/><text fill="#000000" font-family="Verdana" font-size="11" lengthAdjust="spacing" textLength="25.5718" x="1266.11" y="589.229">Logs</text></g><!--link main to logstash--><g class="link" data-entity-1="main" data-entity-2="logstash" data-source-line="111" data-uid="lnk61" id="link_main_logstash"><path d="M562.1123,526.0006 C562.1681,526.0815 562.2241,526.1625 562.2804,526.2438 C562.393,526.4065 562.5066,526.5701 562.6213,526.7347 C563.08,527.393 563.5554,528.0667 564.0472,528.7537 C566.0141,531.5019 568.2422,534.4636 570.7063,537.5111 C580.5625,549.7011 594.195,563.2636 610,570.0186 C638.92,582.3686 1145.26,571.3586 1176,578.0186 C1191.17,581.3086 1193.31,587.0086 1208,592.0186 C1221.88,596.7486 1227.08,593.0886 1240,600.0186 C1273.76,618.1086 1301.2521,644.6425 1321.4221,667.0125" fill="none" id="main-to-logstash" style="stroke:#000000;stroke-width:1;stroke-dasharray:7,7;"/><polygon fill="#000000" points="1325.44,671.4686,1322.3839,662.1059,1322.0918,667.7552,1316.4425,667.463,1325.44,671.4686" style="stroke:#000000;stroke-width:1;"/><text fill="#000000" font-family="Verdana" font-size="11" lengthAdjust="spacing" textLength="25.5718" x="1209" y="589.229">Logs</text></g><!--link chat to logstash--><g class="link" data-entity-1="chat" data-entity-2="logstash" data-source-line="112" data-uid="lnk62" id="link_chat_logstash"><path d="M1008.1432,525.9365 C1008.1992,526.017 1008.2554,526.0977 1008.3118,526.1787 C1008.4247,526.3406 1008.5386,526.5035 1008.6536,526.6674 C1009.1136,527.323 1009.5903,527.9939 1010.0832,528.6781 C1012.055,531.4153 1014.2875,534.3667 1016.755,537.4061 C1026.625,549.5636 1040.255,563.1286 1056,570.0186 C1081.87,581.3386 1287.49,560.9686 1310,578.0186 C1338.65,599.7286 1345.8264,637.0396 1347.5464,665.3696" fill="none" id="chat-to-logstash" style="stroke:#000000;stroke-width:1;stroke-dasharray:7,7;"/><polygon fill="#000000" points="1347.91,671.3586,1351.3572,662.1327,1347.607,666.3678,1343.3719,662.6175,1347.91,671.3586" style="stroke:#000000;stroke-width:1;"/><text fill="#000000" font-family="Verdana" font-size="11" lengthAdjust="spacing" textLength="25.5718" x="1322.93" y="589.229">Logs</text></g><!--link notification to logstash--><g class="link" data-entity-1="notification" data-entity-2="logstash" data-source-line="113" data-uid="lnk63" id="link_notification_logstash"><path d="M1269.1525,525.3108 C1269.3779,525.6224 1269.6075,525.9381 1269.8412,526.2578 C1270.3088,526.897 1270.7929,527.5518 1271.2933,528.2202 C1273.2946,530.894 1275.5547,533.7864 1278.0438,536.7798 C1288,548.7536 1301.62,562.3436 1317,570.0186 C1329.04,576.0286 1368.14,567.8986 1377,578.0186 C1399.66,603.8986 1385.7366,639.3014 1369.8066,666.0914" fill="none" id="notification-to-logstash" style="stroke:#000000;stroke-width:1;stroke-dasharray:7,7;"/><polygon fill="#000000" points="1366.74,671.2486,1374.7779,665.5572,1369.2955,666.9509,1367.9018,661.4685,1366.74,671.2486" style="stroke:#000000;stroke-width:1;"/><text fill="#000000" font-family="Verdana" font-size="11" lengthAdjust="spacing" textLength="25.5718" x="1386" y="589.229">Logs</text></g><!--link search to logstash--><g class="link" data-entity-1="search" data-entity-2="logstash" data-source-line="114" data-uid="lnk64" id="link_search_logstash"><path d="M1504.0358,516.234 C1504.2726,516.3295 1504.5137,516.4271 1504.7591,516.5267 C1505.7405,516.9252 1506.7895,517.356 1507.8981,517.8177 C1510.1154,518.7412 1512.5715,519.7884 1515.2039,520.9481 C1525.7334,525.587 1539.0831,532.0267 1551.2488,539.5523 C1575.58,554.6036 1595.175,573.9986 1578,592.0186 C1565.18,605.4686 1427.08,590.7186 1411,600.0186 C1383.96,615.6686 1368.9203,642.5406 1359.4203,665.9006" fill="none" id="search-to-logstash" style="stroke:#000000;stroke-width:1;stroke-dasharray:7,7;"/><polygon fill="#000000" points="1357.16,671.4586,1364.2558,664.6285,1359.0436,666.8269,1356.8451,661.6147,1357.16,671.4586" style="stroke:#000000;stroke-width:1;"/><text fill="#000000" font-family="Verdana" font-size="11" lengthAdjust="spacing" textLength="25.5718" x="1585.47" y="589.229">Logs</text></g><!--link gateway to logstash--><g class="link" data-entity-1="gateway" data-entity-2="logstash" data-source-line="115" data-uid="lnk65" id="link_gateway_logstash"><path d="M1008.4313,347.9337 C1009.4264,348.0084 1010.5047,348.0898 1011.6634,348.1779 C1013.9809,348.354 1016.6204,348.5565 1019.5609,348.7852 C1031.323,349.7 1047.9006,351.0327 1067.9456,352.7594 C1108.0356,356.2126 1161.995,361.2417 1219.0375,367.6548 C1333.1225,380.4811 1459.54,398.8436 1512,421.2086 C1631.27,472.0686 1695.65,464.3386 1758,578.0186 C1760.99,583.4786 1762.35,587.5686 1758,592.0186 C1744.52,605.8086 1427.81,590.5686 1411,600.0186 C1383.77,615.3286 1368.7369,642.2612 1359.3069,665.7312" fill="none" id="gateway-to-logstash" style="stroke:#000000;stroke-width:1;stroke-dasharray:7,7;"/><polygon fill="#000000" points="1357.07,671.2986,1364.137,664.4387,1358.9341,666.6591,1356.7138,661.4562,1357.07,671.2986" style="stroke:#000000;stroke-width:1;"/><text fill="#000000" font-family="Verdana" font-size="11" lengthAdjust="spacing" textLength="25.5718" x="1752.76" y="516.329">Logs</text></g><!--link logstash to elk_es--><g class="link" data-entity-1="logstash" data-entity-2="elk_es" data-source-line="117" data-uid="lnk66" id="link_logstash_elk_es"><path d="M1338.15,727.5586 C1333.94,743.4586 1331.35,763.6386 1338,780.4286 C1343.85,795.1986 1350.441,804.3928 1361.481,815.1928" fill="none" id="logstash-to-elk_es" style="stroke:#000000;stroke-width:1;"/><polygon fill="#000000" points="1365.77,819.3886,1362.1337,810.2356,1362.1958,815.8921,1356.5393,815.9543,1365.77,819.3886" style="stroke:#000000;stroke-width:1;"/><text fill="#000000" font-family="Verdana" font-size="11" lengthAdjust="spacing" textLength="59.5439" x="1339" y="777.639">Index Logs</text></g><!--link kibana to elk_es--><g class="link" data-entity-1="kibana" data-entity-2="elk_es" data-source-line="118" data-uid="lnk67" id="link_kibana_elk_es"><path d="M1454.55,727.5486 C1442.52,753.7686 1426.8918,787.835 1414.8818,814.015" fill="none" id="kibana-to-elk_es" style="stroke:#000000;stroke-width:1;"/><polygon fill="#000000" points="1412.38,819.4686,1419.7684,812.9561,1414.4648,814.924,1412.497,809.6204,1412.38,819.4686" style="stroke:#000000;stroke-width:1;"/><text fill="#000000" font-family="Verdana" font-size="11" lengthAdjust="spacing" textLength="62.498" x="1436.51" y="777.639">Query Logs</text></g><!--link kafka to GMN68--><g class="link" data-entity-1="kafka" data-entity-2="GMN68" data-source-line="121" data-uid="lnk70" id="link_kafka_GMN68"><path d="M1232.1076,674.0386 C1232.2309,673.7113 1232.3556,673.3819 1232.4818,673.0506 C1233.4917,670.3994 1234.5973,667.6196 1235.8017,664.7458 C1238.2104,658.9982 1241.0141,652.8745 1244.2363,646.6523 C1257.125,621.7636 1276.71,595.2986 1304.5,585.0186 C1349.73,568.2886 1693.27,568.2886 1738.5,585.0186 C1778.38,599.7686 1812.83,634.7086 1835.13,662.1186" fill="none" id="kafka-GMN68" style="stroke:#000000;stroke-width:1;stroke-dasharray:7,7;"/></g><!--link postgres to GMN71--><g class="link" data-entity-1="postgres" data-entity-2="GMN71" data-source-line="129" data-uid="lnk73" id="link_postgres_GMN71"><path d="M265.1098,669.3378 C265.168,669.1647 265.2266,668.9912 265.2856,668.8173 C265.7571,667.4259 266.2513,666.0067 266.7687,664.5641 C268.838,658.7937 271.2784,652.6492 274.1288,646.4111 C285.53,621.4586 303.49,595.0086 330.5,585.0186 C372.11,569.6286 1885.89,569.6286 1927.5,585.0186 C1963.98,598.5186 1991.95,634.0286 2009.2,661.9386" fill="none" id="postgres-GMN71" style="stroke:#000000;stroke-width:1;stroke-dasharray:7,7;"/></g><!--link mongo to GMN74--><g class="link" data-entity-1="mongo" data-entity-2="GMN74" data-source-line="137" data-uid="lnk76" id="link_mongo_GMN74"><path d="M1000.1355,677.5194 C1000.201,677.3643 1000.2669,677.2085 1000.3332,677.0522 C1000.8636,675.8017 1001.4198,674.5147 1002.0019,673.1956 C1003.1661,670.5573 1004.4341,667.7902 1005.8067,664.9286 C1008.5521,659.2055 1011.7166,653.1045 1015.3087,646.8998 C1029.6775,622.0811 1050.89,595.6036 1079.5,585.0186 C1132.44,565.4386 2042.56,565.4386 2095.5,585.0186 C2133.96,599.2486 2161.4,639.7086 2176.73,668.4686" fill="none" id="mongo-GMN74" style="stroke:#000000;stroke-width:1;stroke-dasharray:7,7;"/></g><!--link redis to GMN77--><g class="link" data-entity-1="redis" data-entity-2="GMN77" data-source-line="144" data-uid="lnk79" id="link_redis_GMN77"><path d="M547.1098,669.3378 C547.168,669.1647 547.2266,668.9912 547.2856,668.8173 C547.7571,667.4259 548.2513,666.0067 548.7687,664.5641 C550.838,658.7937 553.2784,652.6492 556.1288,646.4111 C567.53,621.4586 585.49,595.0086 612.5,585.0186 C655.2,569.2186 2208.8,569.2186 2251.5,585.0186 C2288.62,598.7486 2317.81,634.2286 2335.98,662.0686" fill="none" id="redis-GMN77" style="stroke:#000000;stroke-width:1;stroke-dasharray:7,7;"/></g><!--link elk to GMN80--><g class="link" data-entity-1="elk" data-entity-2="GMN80" data-source-line="152" data-uid="lnk82" id="link_elk_GMN80"><path d="M1549.0183,711.2713 C1549.075,711.3441 1549.1321,711.4171 1549.1894,711.4904 C1549.304,711.6369 1549.4196,711.7846 1549.5363,711.9332 C1549.7697,712.2305 1550.0073,712.532 1550.2491,712.8374 C1550.7325,713.4482 1551.2325,714.0747 1551.7483,714.7153 C1553.8118,717.278 1556.1297,720.067 1558.6638,722.9798 C1568.8,734.6311 1582.395,748.2636 1597,757.3186 C1658.77,795.6186 1738.73,819.2486 1795.95,832.4686" fill="none" id="elk-GMN80" style="stroke:#000000;stroke-width:1;stroke-dasharray:7,7;"/></g><!--SRC=[VLVRRjiu47tNLt1jO1S8uC3EFNeeaFiMJTeqJb6WMA2W94RYMYODacgQBlhlEpEa5CfMx3p4EZF3CqFE7Cf_k4ei1LlLNAeaiGkfLjpm9VilOV39UBueZMvKSQ5hRTZu-Wh_o6OhNkXdgKhsn6ih22l44szgTwsLcyjVWircoUyaSTBLWbtgV24CknIhMhyiXNBipEILT29tZH59iW8kNWes2euVXNlMPf4ogtF9wudop_X_1EaHdz8519pTlsStt8bd_lAFIa-c9zCHuvQL7cBZMrbMxhnkHAWAFzmu-SHpnqR1RMA5-I5piVilDt7uTtYcgDynvHMalE1i3Z728EdnqOoYX3UCxnkpgeS92sbp3M6Rb3vucF6iSHNnGO2lyfXYEEBZ6oE46cH3-mOHWiCqTz07VPfzYbWYleK6xHiq20xJN5JSzMcEA297V0iDsZTe41oc-QWXKERSIRrMrI55gjY-XJRssw2FZSDfp0M7LkydS42nrbksK7kF3L8FhzCLtF6CMw2yrzQLHim_tmBTuS7-7aMjF6hP-6ibOATV2QtJXgOFMwF8kYufiaqNFDRWuhyEft2dLQalpu5_xtWwyzswH6mBUto-tTc-HN1LS-jaxhS2Q4xtfdxoXJTiuGcx2icBdz5-qlCmsOE0kGMIe_tZKuem26mhXUTLg06_RJfeLKib9WsKQydF0_IysKCV-1FeoaNTM2Ty2om86NyoN9MnqkHwkT8A1NRqJUk542kIgBtPYPUeNoqu5E5fpWsuKD3fzDItJaRGW1BUVc1p1zeTTdu1sYVLOZYVWHERjN7VXHqAkTMbTToYz-4qd6yTiC42PCOLH- -ZiFQ2a90vv9xNkYaWbv-maOhNx2pFXVKd85hCtnat1guFNmZC8jn_ewyYWpEGm4J-poABhNSwao3waSEI46JzYtM4kLOARZsG2vl02cmoUTTTLYdx-_7nVixIWuFzn4U_ROT5WwP0DvRIEaCYbBJEkxllsWifxJmls-ideQkZv_D0gy0nazmFcqYYXqqzEHrs2O8tR8phqOs3Tukk5Dm3pBS7O9Oz07Fh0N56FOFF0nalsn6FZuMs1lqwnKnREQIjMJC56QIjeSH8vb8MorbREjfRWKfPB4IlyLvRKXPBn2jnQ_Mw0YNueOtpzzDAtg_ZtYqGh2cxRx9QsefT_O26jVtpwpbUmA8Dl2S6nwYKjrmWBHZT4i-mwxDsRi4Rn_grozODNO-j6pOwRDqXwgzrKpmLwxQa0_pne1g1xJqUY_VmAj8tVsvWZC82a1bqBQe6qqzUcq4QTdRkG5jGxhsaxkm0-AXNe84fV9lq6dGY_DOXZiqLFuF2uJjp2mbLOAXOvsrxagWVeCrmNP0SR7BYdh0lq4mWM3cyrOUryLt1iZ_X18d3WzS6HAombLpvPth_T523UfkTsfwewVqkb6u3SRiJbSGhy8KmQ1gG8ijzrn8lAXvtSADKowsbqXHuCeutTmaLp842LufBjG4Zv1CD5CE1Og2M-GBx4mt-ADkRUi8Ue5bOBPUIL6WjXqmxfvUO1BI2Jm5IDRo6tpn5s_OX1tXYl8GpARq8qU82Viyu2SC2EoPXCzeio1dEwmKlIK8UGGYpMjXAwtuc_mC0]--></g></svg>