<svg xmlns="http://www.w3.org/2000/svg" xmlns:xlink="http://www.w3.org/1999/xlink" contentStyleType="text/css" data-diagram-type="DESCRIPTION" height="878px" preserveAspectRatio="none" style="width:606px;height:878px;background:#FFFFFF;" version="1.1" viewBox="0 0 606 878" width="606px" zoomAndPan="magnify"><defs/><g><!--cluster Social Network System--><g class="cluster" data-entity="Social Network System" data-source-line="7" data-uid="ent0004" id="cluster_Social Network System"><rect fill="none" height="783" rx="2.5" ry="2.5" style="stroke:#181818;stroke-width:1;" width="502.88" x="97.86" y="89.21"/><text fill="#000000" font-family="sans-serif" font-size="14" font-weight="bold" lengthAdjust="spacing" textLength="181.7813" x="258.4094" y="104.2051">Social Network System</text></g><!--entity UC1--><g class="entity" data-entity="UC1" data-source-line="8" data-uid="ent0005" id="entity_UC1"><ellipse cx="206.0362" cy="428.2072" fill="#F1F1F1" rx="67.8862" ry="15.9772" style="stroke:#181818;stroke-width:0.5;"/><text fill="#000000" font-family="sans-serif" font-size="14" lengthAdjust="spacing" textLength="101.001" x="155.5358" y="432.8557">Register/Login</text></g><!--entity UC2--><g class="entity" data-entity="UC2" data-source-line="9" data-uid="ent0006" id="entity_UC2"><ellipse cx="206.0373" cy="495.2135" fill="#F1F1F1" rx="69.1173" ry="16.2235" style="stroke:#181818;stroke-width:0.5;"/><text fill="#000000" font-family="sans-serif" font-size="14" lengthAdjust="spacing" textLength="104.1455" x="153.9645" y="499.8619">Manage Profile</text></g><!--entity UC3--><g class="entity" data-entity="UC3" data-source-line="10" data-uid="ent0007" id="entity_UC3"><ellipse cx="206.0433" cy="631.2136" fill="#F1F1F1" rx="60.3233" ry="14.5236" style="stroke:#181818;stroke-width:0.5;"/><text fill="#000000" font-family="sans-serif" font-size="14" lengthAdjust="spacing" textLength="81.0674" x="165.5096" y="635.8621">Create Post</text></g><!--entity UC4--><g class="entity" data-entity="UC4" data-source-line="11" data-uid="ent0008" id="entity_UC4"><ellipse cx="206.0403" cy="564.2081" fill="#F1F1F1" rx="77.4903" ry="17.8981" style="stroke:#181818;stroke-width:0.5;"/><text fill="#000000" font-family="sans-serif" font-size="14" lengthAdjust="spacing" textLength="124.7217" x="143.6794" y="568.8565">Comment on Post</text></g><!--entity UC5--><g class="entity" data-entity="UC5" data-source-line="12" data-uid="ent0009" id="entity_UC5"><ellipse cx="206.0383" cy="139.2137" fill="#F1F1F1" rx="64.7683" ry="15.3537" style="stroke:#181818;stroke-width:0.5;"/><text fill="#000000" font-family="sans-serif" font-size="14" lengthAdjust="spacing" textLength="92.8525" x="159.612" y="143.8621">React to Post</text></g><!--entity UC6--><g class="entity" data-entity="UC6" data-source-line="13" data-uid="ent0010" id="entity_UC6"><ellipse cx="206.0413" cy="209.2063" fill="#F1F1F1" rx="86.4813" ry="19.6963" style="stroke:#181818;stroke-width:0.5;"/><text fill="#000000" font-family="sans-serif" font-size="14" lengthAdjust="spacing" textLength="145.7285" x="133.177" y="213.8547">Send Friend Request</text></g><!--entity UC7--><g class="entity" data-entity="UC7" data-source-line="14" data-uid="ent0011" id="entity_UC7"><ellipse cx="206.0385" cy="285.2057" fill="#F1F1F1" rx="92.1785" ry="20.8357" style="stroke:#181818;stroke-width:0.5;"/><text fill="#000000" font-family="sans-serif" font-size="14" lengthAdjust="spacing" textLength="158.6553" x="126.7108" y="289.8541">Accept/Reject Request</text></g><!--entity UC8--><g class="entity" data-entity="UC8" data-source-line="15" data-uid="ent0012" id="entity_UC8"><ellipse cx="206.0359" cy="699.2112" fill="#F1F1F1" rx="81.3559" ry="18.6712" style="stroke:#181818;stroke-width:0.5;"/><text fill="#000000" font-family="sans-serif" font-size="14" lengthAdjust="spacing" textLength="133.8613" x="139.1052" y="703.8596">Search Users/Posts</text></g><!--entity UC9--><g class="entity" data-entity="UC9" data-source-line="16" data-uid="ent0013" id="entity_UC9"><ellipse cx="206.0397" cy="359.2079" fill="#F1F1F1" rx="76.6397" ry="17.7279" style="stroke:#181818;stroke-width:0.5;"/><text fill="#000000" font-family="sans-serif" font-size="14" lengthAdjust="spacing" textLength="122.6846" x="144.6974" y="363.8564">Chat with Friends</text></g><!--entity UC10--><g class="entity" data-entity="UC10" data-source-line="17" data-uid="ent0014" id="entity_UC10"><ellipse cx="497.4811" cy="247.2122" fill="#F1F1F1" rx="87.2611" ry="19.8522" style="stroke:#181818;stroke-width:0.5;"/><text fill="#000000" font-family="sans-serif" font-size="14" lengthAdjust="spacing" textLength="147.5127" x="423.7247" y="251.8606">Receive Notifications</text></g><!--entity UC11--><g class="entity" data-entity="UC11" data-source-line="18" data-uid="ent0015" id="entity_UC11"><ellipse cx="206.0449" cy="771.215" fill="#F1F1F1" rx="78.3249" ry="18.065" style="stroke:#181818;stroke-width:0.5;"/><text fill="#000000" font-family="sans-serif" font-size="14" lengthAdjust="spacing" textLength="126.7109" x="142.6894" y="775.8634">Moderate Content</text></g><!--entity UC12--><g class="entity" data-entity="UC12" data-source-line="19" data-uid="ent0016" id="entity_UC12"><ellipse cx="206.042" cy="840.2104" fill="#F1F1F1" rx="68.102" ry="16.0204" style="stroke:#181818;stroke-width:0.5;"/><text fill="#000000" font-family="sans-serif" font-size="14" lengthAdjust="spacing" textLength="101.5547" x="155.2646" y="844.8588">View Analytics</text></g><!--entity User--><g class="entity" data-entity="User" data-source-line="4" data-uid="ent0002" id="entity_User"><ellipse cx="28.4351" cy="367.56" fill="#F1F1F1" rx="8" ry="8" style="stroke:#181818;stroke-width:0.5;"/><path d="M28.4351,375.56 L28.4351,402.56 M15.4351,383.56 L41.4351,383.56 M28.4351,402.56 L15.4351,417.56 M28.4351,402.56 L41.4351,417.56" fill="none" style="stroke:#181818;stroke-width:0.5;"/><text fill="#000000" font-family="sans-serif" font-size="14" lengthAdjust="spacing" textLength="31.9102" x="12.48" y="432.0551">User</text></g><!--entity Admin--><g class="entity" data-entity="Admin" data-source-line="5" data-uid="ent0003" id="entity_Admin"><ellipse cx="28.4321" cy="741.56" fill="#F1F1F1" rx="8" ry="8" style="stroke:#181818;stroke-width:0.5;"/><path d="M28.4321,749.56 L28.4321,776.56 M15.4321,757.56 L41.4321,757.56 M28.4321,776.56 L15.4321,791.56 M28.4321,776.56 L41.4321,791.56" fill="none" style="stroke:#181818;stroke-width:0.5;"/><text fill="#000000" font-family="sans-serif" font-size="14" lengthAdjust="spacing" textLength="44.8643" x="6" y="806.0551">Admin</text></g><!--link User to UC1--><g class="link" data-entity-1="User" data-entity-2="UC1" data-source-line="22" data-uid="lnk17" id="link_User_UC1"><path d="M44.71,399.91 C68.16,404.05 108.2512,411.1278 144.9912,417.6078" fill="none" id="User-to-UC1" style="stroke:#181818;stroke-width:1;"/><polygon fill="#181818" points="150.9,418.65,142.7316,413.1476,145.976,417.7815,141.342,421.026,150.9,418.65" style="stroke:#181818;stroke-width:1;"/></g><!--link User to UC2--><g class="link" data-entity-1="User" data-entity-2="UC2" data-source-line="23" data-uid="lnk18" id="link_User_UC2"><path d="M44.66,418.44 C55.73,432.44 71.89,450.18 89.86,461.21 C108.08,472.39 124.3633,478.5594 144.3133,483.7494" fill="none" id="User-to-UC2" style="stroke:#181818;stroke-width:1;"/><polygon fill="#181818" points="150.12,485.26,142.417,479.1229,145.2811,484.0011,140.4028,486.8652,150.12,485.26" style="stroke:#181818;stroke-width:1;"/></g><!--link User to UC3--><g class="link" data-entity-1="User" data-entity-2="UC3" data-source-line="24" data-uid="lnk19" id="link_User_UC3"><path d="M30.27,435.53 C33.36,480.86 45.43,555.64 89.86,599.21 C105.35,614.39 121.516,621.2868 142.166,625.5868" fill="none" id="User-to-UC3" style="stroke:#181818;stroke-width:1;"/><polygon fill="#181818" points="148.04,626.81,140.0444,621.0593,143.145,625.7907,138.4136,628.8913,148.04,626.81" style="stroke:#181818;stroke-width:1;"/></g><!--link User to UC4--><g class="link" data-entity-1="User" data-entity-2="UC4" data-source-line="25" data-uid="lnk20" id="link_User_UC4"><path d="M37.88,435.66 C46.29,465.2 62.06,504.91 89.86,529.21 C103.87,541.45 116.2997,547.7309 134.0697,552.9109" fill="none" id="User-to-UC4" style="stroke:#181818;stroke-width:1;"/><polygon fill="#181818" points="139.83,554.59,132.309,548.2311,135.0298,553.1907,130.0702,555.9115,139.83,554.59" style="stroke:#181818;stroke-width:1;"/></g><!--link User to UC5--><g class="link" data-entity-1="User" data-entity-2="UC5" data-source-line="26" data-uid="lnk21" id="link_User_UC5"><path d="M28.86,358.62 C30.27,308.79 40.37,222.53 89.86,172.21 C104.38,157.45 119.165,150.535 138.965,145.945" fill="none" id="User-to-UC5" style="stroke:#181818;stroke-width:1;"/><polygon fill="#181818" points="144.81,144.59,135.1392,142.7258,139.9392,145.7191,136.9458,150.5191,144.81,144.59" style="stroke:#181818;stroke-width:1;"/></g><!--link User to UC6--><g class="link" data-entity-1="User" data-entity-2="UC6" data-source-line="27" data-uid="lnk22" id="link_User_UC6"><path d="M35.55,358.83 C42.86,325.06 58.32,276.78 89.86,247.21 C102.77,235.11 113.9099,228.7635 130.7099,223.1435" fill="none" id="User-to-UC6" style="stroke:#181818;stroke-width:1;"/><polygon fill="#181818" points="136.4,221.24,126.5959,220.3018,131.6583,222.8262,129.1339,227.8886,136.4,221.24" style="stroke:#181818;stroke-width:1;"/></g><!--link User to UC7--><g class="link" data-entity-1="User" data-entity-2="UC7" data-source-line="28" data-uid="lnk23" id="link_User_UC7"><path d="M44.67,372.49 C55.53,356.71 71.43,336.9 89.86,324.21 C104.99,313.8 117.4509,307.8662 134.8209,302.0462" fill="none" id="User-to-UC7" style="stroke:#181818;stroke-width:1;"/><polygon fill="#181818" points="140.51,300.14,130.7055,299.2065,135.769,301.7285,133.2471,306.7921,140.51,300.14" style="stroke:#181818;stroke-width:1;"/></g><!--link User to UC8--><g class="link" data-entity-1="User" data-entity-2="UC8" data-source-line="29" data-uid="lnk24" id="link_User_UC8"><path d="M33.47,435.84 C41.08,501.36 59.54,630.38 89.86,663.21 C101.8,676.14 112.5922,682.6415 129.3822,687.9815" fill="none" id="User-to-UC8" style="stroke:#181818;stroke-width:1;"/><polygon fill="#181818" points="135.1,689.8,127.7357,683.2604,130.3352,688.2846,125.311,690.8841,135.1,689.8" style="stroke:#181818;stroke-width:1;"/></g><!--link User to UC9--><g class="link" data-entity-1="User" data-entity-2="UC9" data-source-line="30" data-uid="lnk25" id="link_User_UC9"><path d="M44.71,393.9 C67.74,388.92 106.6658,380.4995 143.0658,372.6195" fill="none" id="User-to-UC9" style="stroke:#181818;stroke-width:1;"/><polygon fill="#181818" points="148.93,371.35,139.2874,369.3448,144.0432,372.4079,140.9801,377.1637,148.93,371.35" style="stroke:#181818;stroke-width:1;"/></g><!--link User to UC10--><g class="link" data-entity-1="User" data-entity-2="UC10" data-source-line="31" data-uid="lnk26" id="link_User_UC10"><path d="M31.59,358.72 C36.51,287.07 51.24,137.64 89.86,106.21 C213.02,6 407.4566,165.2671 471.4866,223.6571" fill="none" id="User-to-UC10" style="stroke:#181818;stroke-width:1;"/><polygon fill="#181818" points="475.92,227.7,471.9652,218.6801,472.2255,224.3309,466.5746,224.5913,475.92,227.7" style="stroke:#181818;stroke-width:1;"/></g><!--link Admin to UC11--><g class="link" data-entity-1="Admin" data-entity-2="UC11" data-source-line="33" data-uid="lnk27" id="link_Admin_UC11"><path d="M51.32,771.21 C70.53,771.21 93.68,771.21 121.44,771.21" fill="none" id="Admin-to-UC11" style="stroke:#181818;stroke-width:1;"/><polygon fill="#181818" points="127.44,771.21,118.44,767.21,122.44,771.21,118.44,775.21,127.44,771.21" style="stroke:#181818;stroke-width:1;"/></g><!--link Admin to UC12--><g class="link" data-entity-1="Admin" data-entity-2="UC12" data-source-line="34" data-uid="lnk28" id="link_Admin_UC12"><path d="M51.09,785.97 C62.29,793.12 76.41,801.39 89.86,807.21 C110.77,816.25 129.0572,822.0644 149.7872,827.5144" fill="none" id="Admin-to-UC12" style="stroke:#181818;stroke-width:1;"/><polygon fill="#181818" points="155.59,829.04,147.9028,822.8831,150.7543,827.7687,145.8687,830.6202,155.59,829.04" style="stroke:#181818;stroke-width:1;"/></g><!--link Admin to UC8--><g class="link" data-entity-1="Admin" data-entity-2="UC8" data-source-line="35" data-uid="lnk29" id="link_Admin_UC8"><path d="M51.15,756.59 C62.37,749.47 76.48,741.19 89.86,735.21 C109.18,726.58 125.44,720.8738 145,715.0438" fill="none" id="Admin-to-UC8" style="stroke:#181818;stroke-width:1;"/><polygon fill="#181818" points="150.75,713.33,140.9824,712.0674,145.9583,714.7582,143.2675,719.7341,150.75,713.33" style="stroke:#181818;stroke-width:1;"/></g><!--link UC3 to UC10--><g class="link" data-entity-1="UC3" data-entity-2="UC10" data-source-line="37" data-uid="lnk30" id="link_UC3_UC10"><path d="M248.58,620.58 C264.74,615.45 282.99,608.39 298.22,599.21 C340.78,573.56 351.71,563.91 380.22,523.21 C440.48,437.18 476.434,320.8638 489.594,273.1738" fill="none" id="UC3-to-UC10" style="stroke:#181818;stroke-width:1;stroke-dasharray:7,7;"/><polygon fill="#181818" points="491.19,267.39,484.9401,275.0017,489.86,272.2099,492.6518,277.1298,491.19,267.39" style="stroke:#181818;stroke-width:1;"/><text fill="#000000" font-family="sans-serif" font-size="13" lengthAdjust="spacing" textLength="50.6733" x="329.22" y="519.2769">triggers</text></g><!--link UC4 to UC10--><g class="link" data-entity-1="UC4" data-entity-2="UC10" data-source-line="38" data-uid="lnk31" id="link_UC4_UC10"><path d="M258.1,550.63 C272,545.39 286.45,538.39 298.22,529.21 C394.97,453.77 461.3877,323.7641 485.0077,272.7841" fill="none" id="UC4-to-UC10" style="stroke:#181818;stroke-width:1;stroke-dasharray:7,7;"/><polygon fill="#181818" points="487.53,267.34,480.1171,273.8245,485.4281,271.8767,487.3759,277.1877,487.53,267.34" style="stroke:#181818;stroke-width:1;"/><text fill="#000000" font-family="sans-serif" font-size="13" lengthAdjust="spacing" textLength="50.6733" x="329.22" y="445.1669">triggers</text></g><!--link UC5 to UC10--><g class="link" data-entity-1="UC5" data-entity-2="UC10" data-source-line="39" data-uid="lnk32" id="link_UC5_UC10"><path d="M243.99,152.04 C279.15,164.34 333.45,183.59 380.22,201.21 C404.5,210.35 425.869,218.7621 447.699,227.4921" fill="none" id="UC5-to-UC10" style="stroke:#181818;stroke-width:1;stroke-dasharray:7,7;"/><polygon fill="#181818" points="453.27,229.72,446.3987,222.6641,448.6275,227.8634,443.4282,230.0922,453.27,229.72" style="stroke:#181818;stroke-width:1;"/><text fill="#000000" font-family="sans-serif" font-size="13" lengthAdjust="spacing" textLength="50.6733" x="329.22" y="179.7569">triggers</text></g><!--link UC6 to UC10--><g class="link" data-entity-1="UC6" data-entity-2="UC10" data-source-line="40" data-uid="lnk33" id="link_UC6_UC10"><path d="M281.96,219.05 C324.67,224.65 372.101,230.8794 414.931,236.4994" fill="none" id="UC6-to-UC10" style="stroke:#181818;stroke-width:1;stroke-dasharray:7,7;"/><polygon fill="#181818" points="420.88,237.28,412.4769,232.1431,415.9225,236.6295,411.4361,240.0751,420.88,237.28" style="stroke:#181818;stroke-width:1;"/><text fill="#000000" font-family="sans-serif" font-size="13" lengthAdjust="spacing" textLength="50.6733" x="329.22" y="221.9969">triggers</text></g><!--link UC7 to UC10--><g class="link" data-entity-1="UC7" data-entity-2="UC10" data-source-line="41" data-uid="lnk34" id="link_UC7_UC10"><path d="M286.52,274.78 C328.52,269.26 373.851,263.3108 415.221,257.8808" fill="none" id="UC7-to-UC10" style="stroke:#181818;stroke-width:1;stroke-dasharray:7,7;"/><polygon fill="#181818" points="421.17,257.1,411.726,254.3053,416.2125,257.7507,412.7671,262.2372,421.17,257.1" style="stroke:#181818;stroke-width:1;"/><text fill="#000000" font-family="sans-serif" font-size="13" lengthAdjust="spacing" textLength="50.6733" x="329.22" y="258.8769">triggers</text></g><!--SRC=[TPBBJiCm44Nt_efHztsbRnP8LIHMKA56PMyvqsHeOXTxIbKX_Xsd99MDwCgvTuuzasjNk6TW0vQAaY4dYuh9QE4Ef8_IoXgEKXraWHbVAeIcB7LHeH1IiR6mSsZRptLUanRYXa0lCufa1Hlaix47o2wEiUx1bm0uELJIUMQB1NdR3fzDGRe7qi4k7OV4YzI-FxnQiwSAMo89YTIYP4yOnsrv4fLDNQDcC3f4fl4K_X-Q709W5W8PwXoUB3NB5ZzEUCFc8RPM2eyytEAxJ-4Fk8ZFarQLr_ZSi6dgMcePJLvAXZDnsRRke5KykqBwHDWOfZqfsTnV1uv7KP8cHziabHhDFf4EYk9-8pp3MilgmgHkvoJYMuXcMkZt7wyt58Wa59DGJ4Cn2yKy58jGB4EnYfgEXBY-iawFOvb4Ska7JYSm6FnkXGTW_yeB7xZtftVysHr_ViTV_El_0000]--></g></svg>