<svg xmlns="http://www.w3.org/2000/svg" xmlns:xlink="http://www.w3.org/1999/xlink" contentStyleType="text/css" data-diagram-type="SEQUENCE" height="1063px" preserveAspectRatio="none" style="width:1268px;height:1063px;background:#FFFFFF;" version="1.1" viewBox="0 0 1268 1063" width="1268px" zoomAndPan="magnify"><defs/><g><g><title>Client</title><rect fill="#000000" fill-opacity="0.00000" height="992.1172" width="8" x="28.2651" y="36.2969"/><line style="stroke:#181818;stroke-width:0.5;stroke-dasharray:5,5;" x1="32" x2="32" y1="36.2969" y2="1028.4141"/></g><g><title>Gateway</title><rect fill="#000000" fill-opacity="0.00000" height="992.1172" width="8" x="244.8594" y="36.2969"/><line style="stroke:#181818;stroke-width:0.5;stroke-dasharray:5,5;" x1="247.937" x2="247.937" y1="36.2969" y2="1028.4141"/></g><g><title>Auth Service</title><rect fill="#000000" fill-opacity="0.00000" height="992.1172" width="8" x="402.0649" y="36.2969"/><line style="stroke:#181818;stroke-width:0.5;stroke-dasharray:5,5;" x1="405.563" x2="405.563" y1="36.2969" y2="1028.4141"/></g><g><title>Main Service</title><rect fill="#000000" fill-opacity="0.00000" height="992.1172" width="8" x="553.2632" y="36.2969"/><line style="stroke:#181818;stroke-width:0.5;stroke-dasharray:5,5;" x1="556.457" x2="556.457" y1="36.2969" y2="1028.4141"/></g><g><title>Chat Service</title><rect fill="#000000" fill-opacity="0.00000" height="992.1172" width="8" x="666.5234" y="36.2969"/><line style="stroke:#181818;stroke-width:0.5;stroke-dasharray:5,5;" x1="670.0693" x2="670.0693" y1="36.2969" y2="1028.4141"/></g><g><title>Search Service</title><rect fill="#000000" fill-opacity="0.00000" height="992.1172" width="8" x="787.2759" y="36.2969"/><line style="stroke:#181818;stroke-width:0.5;stroke-dasharray:5,5;" x1="790.9775" x2="790.9775" y1="36.2969" y2="1028.4141"/></g><g><title>Kafka</title><rect fill="#000000" fill-opacity="0.00000" height="992.1172" width="8" x="883.2617" y="36.2969"/><line style="stroke:#181818;stroke-width:0.5;stroke-dasharray:5,5;" x1="886.5742" x2="886.5742" y1="36.2969" y2="1028.4141"/></g><g><title>Database</title><rect fill="#000000" fill-opacity="0.00000" height="992.1172" width="8" x="960.3496" y="36.2969"/><line style="stroke:#181818;stroke-width:0.5;stroke-dasharray:5,5;" x1="963.9492" x2="963.9492" y1="36.2969" y2="1028.4141"/></g><g><title>Notification Service</title><rect fill="#000000" fill-opacity="0.00000" height="992.1172" width="8" x="1086.0103" y="36.2969"/><line style="stroke:#181818;stroke-width:0.5;stroke-dasharray:5,5;" x1="1089.75" x2="1089.75" y1="36.2969" y2="1028.4141"/></g><g><title>MongoDB</title><rect fill="#000000" fill-opacity="0.00000" height="992.1172" width="8" x="1211.9478" y="36.2969"/><line style="stroke:#181818;stroke-width:0.5;stroke-dasharray:5,5;" x1="1215.2705" x2="1215.2705" y1="36.2969" y2="1028.4141"/></g><g class="participant participant-head" data-participant="Client"><rect fill="#E2E2F0" height="30.2969" rx="2.5" ry="2.5" style="stroke:#181818;stroke-width:0.5;" width="54.5303" x="5" y="5"/><text fill="#000000" font-family="sans-serif" font-size="14" lengthAdjust="spacing" textLength="40.5303" x="12" y="24.9951">Client</text></g><g class="participant participant-tail" data-participant="Client"><rect fill="#E2E2F0" height="30.2969" rx="2.5" ry="2.5" style="stroke:#181818;stroke-width:0.5;" width="54.5303" x="5" y="1027.4141"/><text fill="#000000" font-family="sans-serif" font-size="14" lengthAdjust="spacing" textLength="40.5303" x="12" y="1047.4092">Client</text></g><g class="participant participant-head" data-participant="Gateway"><rect fill="#E2E2F0" height="30.2969" rx="2.5" ry="2.5" style="stroke:#181818;stroke-width:0.5;" width="75.8447" x="210.937" y="5"/><text fill="#000000" font-family="sans-serif" font-size="14" lengthAdjust="spacing" textLength="61.8447" x="217.937" y="24.9951">Gateway</text></g><g class="participant participant-tail" data-participant="Gateway"><rect fill="#E2E2F0" height="30.2969" rx="2.5" ry="2.5" style="stroke:#181818;stroke-width:0.5;" width="75.8447" x="210.937" y="1027.4141"/><text fill="#000000" font-family="sans-serif" font-size="14" lengthAdjust="spacing" textLength="61.8447" x="217.937" y="1047.4092">Gateway</text></g><g class="participant participant-head" data-participant="Auth"><rect fill="#E2E2F0" height="30.2969" rx="2.5" ry="2.5" style="stroke:#181818;stroke-width:0.5;" width="103.0039" x="354.563" y="5"/><text fill="#000000" font-family="sans-serif" font-size="14" lengthAdjust="spacing" textLength="89.0039" x="361.563" y="24.9951">Auth Service</text></g><g class="participant participant-tail" data-participant="Auth"><rect fill="#E2E2F0" height="30.2969" rx="2.5" ry="2.5" style="stroke:#181818;stroke-width:0.5;" width="103.0039" x="354.563" y="1027.4141"/><text fill="#000000" font-family="sans-serif" font-size="14" lengthAdjust="spacing" textLength="89.0039" x="361.563" y="1047.4092">Auth Service</text></g><g class="participant participant-head" data-participant="Main"><rect fill="#E2E2F0" height="30.2969" rx="2.5" ry="2.5" style="stroke:#181818;stroke-width:0.5;" width="103.6123" x="505.457" y="5"/><text fill="#000000" font-family="sans-serif" font-size="14" lengthAdjust="spacing" textLength="89.6123" x="512.457" y="24.9951">Main Service</text></g><g class="participant participant-tail" data-participant="Main"><rect fill="#E2E2F0" height="30.2969" rx="2.5" ry="2.5" style="stroke:#181818;stroke-width:0.5;" width="103.6123" x="505.457" y="1027.4141"/><text fill="#000000" font-family="sans-serif" font-size="14" lengthAdjust="spacing" textLength="89.6123" x="512.457" y="1047.4092">Main Service</text></g><g class="participant participant-head" data-participant="Chat"><rect fill="#E2E2F0" height="30.2969" rx="2.5" ry="2.5" style="stroke:#181818;stroke-width:0.5;" width="102.9082" x="619.0693" y="5"/><text fill="#000000" font-family="sans-serif" font-size="14" lengthAdjust="spacing" textLength="88.9082" x="626.0693" y="24.9951">Chat Service</text></g><g class="participant participant-tail" data-participant="Chat"><rect fill="#E2E2F0" height="30.2969" rx="2.5" ry="2.5" style="stroke:#181818;stroke-width:0.5;" width="102.9082" x="619.0693" y="1027.4141"/><text fill="#000000" font-family="sans-serif" font-size="14" lengthAdjust="spacing" textLength="88.9082" x="626.0693" y="1047.4092">Chat Service</text></g><g class="participant participant-head" data-participant="Search"><rect fill="#E2E2F0" height="30.2969" rx="2.5" ry="2.5" style="stroke:#181818;stroke-width:0.5;" width="118.5967" x="731.9775" y="5"/><text fill="#000000" font-family="sans-serif" font-size="14" lengthAdjust="spacing" textLength="104.5967" x="738.9775" y="24.9951">Search Service</text></g><g class="participant participant-tail" data-participant="Search"><rect fill="#E2E2F0" height="30.2969" rx="2.5" ry="2.5" style="stroke:#181818;stroke-width:0.5;" width="118.5967" x="731.9775" y="1027.4141"/><text fill="#000000" font-family="sans-serif" font-size="14" lengthAdjust="spacing" textLength="104.5967" x="738.9775" y="1047.4092">Search Service</text></g><g class="participant participant-head" data-participant="Kafka"><rect fill="#E2E2F0" height="30.2969" rx="2.5" ry="2.5" style="stroke:#181818;stroke-width:0.5;" width="53.375" x="860.5742" y="5"/><text fill="#000000" font-family="sans-serif" font-size="14" lengthAdjust="spacing" textLength="39.375" x="867.5742" y="24.9951">Kafka</text></g><g class="participant participant-tail" data-participant="Kafka"><rect fill="#E2E2F0" height="30.2969" rx="2.5" ry="2.5" style="stroke:#181818;stroke-width:0.5;" width="53.375" x="860.5742" y="1027.4141"/><text fill="#000000" font-family="sans-serif" font-size="14" lengthAdjust="spacing" textLength="39.375" x="867.5742" y="1047.4092">Kafka</text></g><g class="participant participant-head" data-participant="Database"><rect fill="#E2E2F0" height="30.2969" rx="2.5" ry="2.5" style="stroke:#181818;stroke-width:0.5;" width="80.8008" x="923.9492" y="5"/><text fill="#000000" font-family="sans-serif" font-size="14" lengthAdjust="spacing" textLength="66.8008" x="930.9492" y="24.9951">Database</text></g><g class="participant participant-tail" data-participant="Database"><rect fill="#E2E2F0" height="30.2969" rx="2.5" ry="2.5" style="stroke:#181818;stroke-width:0.5;" width="80.8008" x="923.9492" y="1027.4141"/><text fill="#000000" font-family="sans-serif" font-size="14" lengthAdjust="spacing" textLength="66.8008" x="930.9492" y="1047.4092">Database</text></g><g class="participant participant-head" data-participant="Notification Service"><rect fill="#E2E2F0" height="30.2969" rx="2.5" ry="2.5" style="stroke:#181818;stroke-width:0.5;" width="150.5205" x="1014.75" y="5"/><text fill="#000000" font-family="sans-serif" font-size="14" lengthAdjust="spacing" textLength="136.5205" x="1021.75" y="24.9951">Notification Service</text></g><g class="participant participant-tail" data-participant="Notification Service"><rect fill="#E2E2F0" height="30.2969" rx="2.5" ry="2.5" style="stroke:#181818;stroke-width:0.5;" width="150.5205" x="1014.75" y="1027.4141"/><text fill="#000000" font-family="sans-serif" font-size="14" lengthAdjust="spacing" textLength="136.5205" x="1021.75" y="1047.4092">Notification Service</text></g><g class="participant participant-head" data-participant="MongoDB"><rect fill="#E2E2F0" height="30.2969" rx="2.5" ry="2.5" style="stroke:#181818;stroke-width:0.5;" width="81.3545" x="1175.2705" y="5"/><text fill="#000000" font-family="sans-serif" font-size="14" lengthAdjust="spacing" textLength="67.3545" x="1182.2705" y="24.9951">MongoDB</text></g><g class="participant participant-tail" data-participant="MongoDB"><rect fill="#E2E2F0" height="30.2969" rx="2.5" ry="2.5" style="stroke:#181818;stroke-width:0.5;" width="81.3545" x="1175.2705" y="1027.4141"/><text fill="#000000" font-family="sans-serif" font-size="14" lengthAdjust="spacing" textLength="67.3545" x="1182.2705" y="1047.4092">MongoDB</text></g><rect fill="#EEEEEE" height="3" style="stroke:#EEEEEE;stroke-width:1;" width="1261.625" x="0" y="66.8633"/><line style="stroke:#000000;stroke-width:1;" x1="0" x2="1261.625" y1="66.8633" y2="66.8633"/><line style="stroke:#000000;stroke-width:1;" x1="0" x2="1261.625" y1="69.8633" y2="69.8633"/><rect fill="#EEEEEE" height="23.1328" style="stroke:#000000;stroke-width:2;" width="96.8052" x="582.4099" y="56.2969"/><text fill="#000000" font-family="sans-serif" font-size="13" font-weight="bold" lengthAdjust="spacing" textLength="78.2793" x="588.4099" y="72.3638">User Login</text><g class="message" data-participant-1="Client" data-participant-2="Gateway"><polygon fill="#181818" points="236.8594,106.5625,246.8594,110.5625,236.8594,114.5625,240.8594,110.5625" style="stroke:#181818;stroke-width:1;"/><line style="stroke:#181818;stroke-width:1;" x1="32.2651" x2="242.8594" y1="110.5625" y2="110.5625"/><text fill="#000000" font-family="sans-serif" font-size="13" lengthAdjust="spacing" textLength="132.5771" x="39.2651" y="105.4966">POST /api/auth/login</text></g><g class="message" data-participant-1="Gateway" data-participant-2="Auth"><polygon fill="#181818" points="394.0649,135.6953,404.0649,139.6953,394.0649,143.6953,398.0649,139.6953" style="stroke:#181818;stroke-width:1;"/><line style="stroke:#181818;stroke-width:1;" x1="248.8594" x2="400.0649" y1="139.6953" y2="139.6953"/><text fill="#000000" font-family="sans-serif" font-size="13" lengthAdjust="spacing" textLength="129.1431" x="255.8594" y="134.6294">Forward credentials</text></g><g class="message" data-participant-1="Auth" data-participant-2="Database"><polygon fill="#181818" points="952.3496,164.8281,962.3496,168.8281,952.3496,172.8281,956.3496,168.8281" style="stroke:#181818;stroke-width:1;"/><line style="stroke:#181818;stroke-width:1;" x1="406.0649" x2="958.3496" y1="168.8281" y2="168.8281"/><text fill="#000000" font-family="sans-serif" font-size="13" lengthAdjust="spacing" textLength="85.8838" x="413.0649" y="163.7622">Validate user</text></g><g class="message" data-participant-1="Database" data-participant-2="Auth"><polygon fill="#181818" points="417.0649,193.9609,407.0649,197.9609,417.0649,201.9609,413.0649,197.9609" style="stroke:#181818;stroke-width:1;"/><line style="stroke:#181818;stroke-width:1;stroke-dasharray:2,2;" x1="411.0649" x2="963.3496" y1="197.9609" y2="197.9609"/><text fill="#000000" font-family="sans-serif" font-size="13" lengthAdjust="spacing" textLength="63.0449" x="423.0649" y="192.895">User data</text></g><g class="message" data-participant-1="Auth" data-participant-2="Auth"><line style="stroke:#181818;stroke-width:1;" x1="406.0649" x2="448.0649" y1="227.0938" y2="227.0938"/><line style="stroke:#181818;stroke-width:1;" x1="448.0649" x2="448.0649" y1="227.0938" y2="240.0938"/><line style="stroke:#181818;stroke-width:1;" x1="407.0649" x2="448.0649" y1="240.0938" y2="240.0938"/><polygon fill="#181818" points="417.0649,236.0938,407.0649,240.0938,417.0649,244.0938,413.0649,240.0938" style="stroke:#181818;stroke-width:1;"/><text fill="#000000" font-family="sans-serif" font-size="13" lengthAdjust="spacing" textLength="137.1982" x="413.0649" y="222.0278">Generate JWT tokens</text></g><g class="message" data-participant-1="Auth" data-participant-2="Database"><polygon fill="#181818" points="952.3496,265.2266,962.3496,269.2266,952.3496,273.2266,956.3496,269.2266" style="stroke:#181818;stroke-width:1;"/><line style="stroke:#181818;stroke-width:1;" x1="406.0649" x2="958.3496" y1="269.2266" y2="269.2266"/><text fill="#000000" font-family="sans-serif" font-size="13" lengthAdjust="spacing" textLength="75.5942" x="413.0649" y="264.1606">Store token</text></g><g class="message" data-participant-1="Auth" data-participant-2="Gateway"><polygon fill="#181818" points="259.8594,294.3594,249.8594,298.3594,259.8594,302.3594,255.8594,298.3594" style="stroke:#181818;stroke-width:1;"/><line style="stroke:#181818;stroke-width:1;stroke-dasharray:2,2;" x1="253.8594" x2="405.0649" y1="298.3594" y2="298.3594"/><text fill="#000000" font-family="sans-serif" font-size="13" lengthAdjust="spacing" textLength="101.9307" x="265.8594" y="293.2935">JWT + User info</text></g><g class="message" data-participant-1="Gateway" data-participant-2="Client"><polygon fill="#181818" points="43.2651,323.4922,33.2651,327.4922,43.2651,331.4922,39.2651,327.4922" style="stroke:#181818;stroke-width:1;"/><line style="stroke:#181818;stroke-width:1;stroke-dasharray:2,2;" x1="37.2651" x2="247.8594" y1="327.4922" y2="327.4922"/><text fill="#000000" font-family="sans-serif" font-size="13" lengthAdjust="spacing" textLength="93.4883" x="49.2651" y="322.4263">AuthResponse</text></g><rect fill="#EEEEEE" height="3" style="stroke:#EEEEEE;stroke-width:1;" width="1261.625" x="0" y="356.0586"/><line style="stroke:#000000;stroke-width:1;" x1="0" x2="1261.625" y1="356.0586" y2="356.0586"/><line style="stroke:#000000;stroke-width:1;" x1="0" x2="1261.625" y1="359.0586" y2="359.0586"/><rect fill="#EEEEEE" height="23.1328" style="stroke:#000000;stroke-width:2;" width="187.5513" x="537.0369" y="345.4922"/><text fill="#000000" font-family="sans-serif" font-size="13" font-weight="bold" lengthAdjust="spacing" textLength="169.0254" x="543.0369" y="361.5591">Authenticated Request</text><g class="message" data-participant-1="Client" data-participant-2="Gateway"><polygon fill="#181818" points="236.8594,395.7578,246.8594,399.7578,236.8594,403.7578,240.8594,399.7578" style="stroke:#181818;stroke-width:1;"/><line style="stroke:#181818;stroke-width:1;" x1="32.2651" x2="242.8594" y1="399.7578" y2="399.7578"/><text fill="#000000" font-family="sans-serif" font-size="13" lengthAdjust="spacing" textLength="192.5942" x="39.2651" y="394.6919">GET /api/posts (Bearer token)</text></g><g class="message" data-participant-1="Gateway" data-participant-2="Auth"><polygon fill="#181818" points="394.0649,424.8906,404.0649,428.8906,394.0649,432.8906,398.0649,428.8906" style="stroke:#181818;stroke-width:1;"/><line style="stroke:#181818;stroke-width:1;" x1="248.8594" x2="400.0649" y1="428.8906" y2="428.8906"/><text fill="#000000" font-family="sans-serif" font-size="13" lengthAdjust="spacing" textLength="94.3452" x="255.8594" y="423.8247">Validate token</text></g><g class="message" data-participant-1="Auth" data-participant-2="Database"><polygon fill="#181818" points="952.3496,454.0234,962.3496,458.0234,952.3496,462.0234,956.3496,458.0234" style="stroke:#181818;stroke-width:1;"/><line style="stroke:#181818;stroke-width:1;" x1="406.0649" x2="958.3496" y1="458.0234" y2="458.0234"/><text fill="#000000" font-family="sans-serif" font-size="13" lengthAdjust="spacing" textLength="125.0171" x="413.0649" y="452.9575">Check token status</text></g><g class="message" data-participant-1="Auth" data-participant-2="Gateway"><polygon fill="#181818" points="259.8594,483.1563,249.8594,487.1563,259.8594,491.1563,255.8594,487.1563" style="stroke:#181818;stroke-width:1;"/><line style="stroke:#181818;stroke-width:1;stroke-dasharray:2,2;" x1="253.8594" x2="405.0649" y1="487.1563" y2="487.1563"/><text fill="#000000" font-family="sans-serif" font-size="13" lengthAdjust="spacing" textLength="133.2056" x="265.8594" y="482.0903">Valid + user context</text></g><g class="message" data-participant-1="Gateway" data-participant-2="Main"><polygon fill="#181818" points="545.2632,512.2891,555.2632,516.2891,545.2632,520.2891,549.2632,516.2891" style="stroke:#181818;stroke-width:1;"/><line style="stroke:#181818;stroke-width:1;" x1="248.8594" x2="551.2632" y1="516.2891" y2="516.2891"/><text fill="#000000" font-family="sans-serif" font-size="13" lengthAdjust="spacing" textLength="231.0166" x="255.8594" y="511.2231">Forward request (X-User-Id header)</text></g><g class="message" data-participant-1="Main" data-participant-2="Database"><polygon fill="#181818" points="952.3496,541.4219,962.3496,545.4219,952.3496,549.4219,956.3496,545.4219" style="stroke:#181818;stroke-width:1;"/><line style="stroke:#181818;stroke-width:1;" x1="557.2632" x2="958.3496" y1="545.4219" y2="545.4219"/><text fill="#000000" font-family="sans-serif" font-size="13" lengthAdjust="spacing" textLength="74.9404" x="564.2632" y="540.356">Fetch posts</text></g><g class="message" data-participant-1="Main" data-participant-2="Gateway"><polygon fill="#181818" points="259.8594,570.5547,249.8594,574.5547,259.8594,578.5547,255.8594,574.5547" style="stroke:#181818;stroke-width:1;"/><line style="stroke:#181818;stroke-width:1;stroke-dasharray:2,2;" x1="253.8594" x2="556.2632" y1="574.5547" y2="574.5547"/><text fill="#000000" font-family="sans-serif" font-size="13" lengthAdjust="spacing" textLength="67.8501" x="265.8594" y="569.4888">Posts data</text></g><g class="message" data-participant-1="Gateway" data-participant-2="Client"><polygon fill="#181818" points="43.2651,599.6875,33.2651,603.6875,43.2651,607.6875,39.2651,603.6875" style="stroke:#181818;stroke-width:1;"/><line style="stroke:#181818;stroke-width:1;stroke-dasharray:2,2;" x1="37.2651" x2="247.8594" y1="603.6875" y2="603.6875"/><text fill="#000000" font-family="sans-serif" font-size="13" lengthAdjust="spacing" textLength="63.0195" x="49.2651" y="598.6216">Response</text></g><rect fill="#EEEEEE" height="3" style="stroke:#EEEEEE;stroke-width:1;" width="1261.625" x="0" y="632.2539"/><line style="stroke:#000000;stroke-width:1;" x1="0" x2="1261.625" y1="632.2539" y2="632.2539"/><line style="stroke:#000000;stroke-width:1;" x1="0" x2="1261.625" y1="635.2539" y2="635.2539"/><rect fill="#EEEEEE" height="23.1328" style="stroke:#000000;stroke-width:2;" width="230.9502" x="515.3374" y="621.6875"/><text fill="#000000" font-family="sans-serif" font-size="13" font-weight="bold" lengthAdjust="spacing" textLength="212.4243" x="521.3374" y="637.7544">Create Post with Notification</text><g class="message" data-participant-1="Client" data-participant-2="Main"><polygon fill="#181818" points="545.2632,671.9531,555.2632,675.9531,545.2632,679.9531,549.2632,675.9531" style="stroke:#181818;stroke-width:1;"/><line style="stroke:#181818;stroke-width:1;" x1="32.2651" x2="551.2632" y1="675.9531" y2="675.9531"/><text fill="#000000" font-family="sans-serif" font-size="13" lengthAdjust="spacing" textLength="184.6406" x="39.2651" y="670.8872">POST /api/posts (with token)</text></g><g class="message" data-participant-1="Main" data-participant-2="Database"><polygon fill="#181818" points="952.3496,701.0859,962.3496,705.0859,952.3496,709.0859,956.3496,705.0859" style="stroke:#181818;stroke-width:1;"/><line style="stroke:#181818;stroke-width:1;" x1="557.2632" x2="958.3496" y1="705.0859" y2="705.0859"/><text fill="#000000" font-family="sans-serif" font-size="13" lengthAdjust="spacing" textLength="64.1177" x="564.2632" y="700.02">Save post</text></g><g class="message" data-participant-1="Main" data-participant-2="Kafka"><polygon fill="#181818" points="875.2617,730.2188,885.2617,734.2188,875.2617,738.2188,879.2617,734.2188" style="stroke:#181818;stroke-width:1;"/><line style="stroke:#181818;stroke-width:1;" x1="557.2632" x2="881.2617" y1="734.2188" y2="734.2188"/><text fill="#000000" font-family="sans-serif" font-size="13" lengthAdjust="spacing" textLength="176.2363" x="564.2632" y="729.1528">Publish post_created event</text></g><g class="message" data-participant-1="Kafka" data-participant-2="Search"><polygon fill="#181818" points="802.2759,759.3516,792.2759,763.3516,802.2759,767.3516,798.2759,763.3516" style="stroke:#181818;stroke-width:1;"/><line style="stroke:#181818;stroke-width:1;" x1="796.2759" x2="886.2617" y1="763.3516" y2="763.3516"/><text fill="#000000" font-family="sans-serif" font-size="13" lengthAdjust="spacing" textLength="68.2246" x="808.2759" y="758.2856">Index post</text></g><g class="message" data-participant-1="Kafka" data-participant-2="Notification Service"><polygon fill="#181818" points="1078.0103,788.4844,1088.0103,792.4844,1078.0103,796.4844,1082.0103,792.4844" style="stroke:#181818;stroke-width:1;"/><line style="stroke:#181818;stroke-width:1;" x1="887.2617" x2="1084.0103" y1="792.4844" y2="792.4844"/><text fill="#000000" font-family="sans-serif" font-size="13" lengthAdjust="spacing" textLength="101.2451" x="894.2617" y="787.4185">Notify followers</text></g><g class="message" data-participant-1="Main" data-participant-2="Client"><polygon fill="#181818" points="43.2651,817.6172,33.2651,821.6172,43.2651,825.6172,39.2651,821.6172" style="stroke:#181818;stroke-width:1;"/><line style="stroke:#181818;stroke-width:1;stroke-dasharray:2,2;" x1="37.2651" x2="556.2632" y1="821.6172" y2="821.6172"/><text fill="#000000" font-family="sans-serif" font-size="13" lengthAdjust="spacing" textLength="81.5991" x="49.2651" y="816.5513">Post created</text></g><rect fill="#EEEEEE" height="3" style="stroke:#EEEEEE;stroke-width:1;" width="1261.625" x="0" y="850.1836"/><line style="stroke:#000000;stroke-width:1;" x1="0" x2="1261.625" y1="850.1836" y2="850.1836"/><line style="stroke:#000000;stroke-width:1;" x1="0" x2="1261.625" y1="853.1836" y2="853.1836"/><rect fill="#EEEEEE" height="23.1328" style="stroke:#000000;stroke-width:2;" width="127.3184" x="567.1533" y="839.6172"/><text fill="#000000" font-family="sans-serif" font-size="13" font-weight="bold" lengthAdjust="spacing" textLength="108.7925" x="573.1533" y="855.6841">Real-time Chat</text><g class="message" data-participant-1="Client" data-participant-2="Chat"><polygon fill="#181818" points="658.5234,889.8828,668.5234,893.8828,658.5234,897.8828,662.5234,893.8828" style="stroke:#181818;stroke-width:1;"/><line style="stroke:#181818;stroke-width:1;" x1="32.2651" x2="664.5234" y1="893.8828" y2="893.8828"/><text fill="#000000" font-family="sans-serif" font-size="13" lengthAdjust="spacing" textLength="129.0352" x="39.2651" y="888.8169">WebSocket connect</text></g><g class="message" data-participant-1="Chat" data-participant-2="Auth"><polygon fill="#181818" points="417.0649,919.0156,407.0649,923.0156,417.0649,927.0156,413.0649,923.0156" style="stroke:#181818;stroke-width:1;"/><line style="stroke:#181818;stroke-width:1;" x1="411.0649" x2="669.5234" y1="923.0156" y2="923.0156"/><text fill="#000000" font-family="sans-serif" font-size="13" lengthAdjust="spacing" textLength="82.1577" x="423.0649" y="917.9497">Validate JWT</text></g><g class="message" data-participant-1="Auth" data-participant-2="Chat"><polygon fill="#181818" points="658.5234,948.1484,668.5234,952.1484,658.5234,956.1484,662.5234,952.1484" style="stroke:#181818;stroke-width:1;"/><line style="stroke:#181818;stroke-width:1;stroke-dasharray:2,2;" x1="406.0649" x2="664.5234" y1="952.1484" y2="952.1484"/><text fill="#000000" font-family="sans-serif" font-size="13" lengthAdjust="spacing" textLength="94.2119" x="413.0649" y="947.0825">User validated</text></g><g class="message" data-participant-1="Chat" data-participant-2="MongoDB"><polygon fill="#181818" points="1203.9478,977.2813,1213.9478,981.2813,1203.9478,985.2813,1207.9478,981.2813" style="stroke:#181818;stroke-width:1;"/><line style="stroke:#181818;stroke-width:1;" x1="670.5234" x2="1209.9478" y1="981.2813" y2="981.2813"/><text fill="#000000" font-family="sans-serif" font-size="13" lengthAdjust="spacing" textLength="97.2017" x="677.5234" y="976.2153">Store message</text></g><g class="message" data-participant-1="Chat" data-participant-2="Client"><polygon fill="#181818" points="43.2651,1006.4141,33.2651,1010.4141,43.2651,1014.4141,39.2651,1010.4141" style="stroke:#181818;stroke-width:1;"/><line style="stroke:#181818;stroke-width:1;stroke-dasharray:2,2;" x1="37.2651" x2="669.5234" y1="1010.4141" y2="1010.4141"/><text fill="#000000" font-family="sans-serif" font-size="13" lengthAdjust="spacing" textLength="121.8687" x="49.2651" y="1005.3481">Message delivered</text></g><!--SRC=[TLFBRjim4BphAnO-9IW4tmMuGECqHjgwBQoqwQrOaskRi4Ag92KdVr- -98krUvsTVSnmsAAsWeaMfOLb8qZQefr0AxHqmhSCcttex05gqhrWD0Cqu86SiaOXCue7SihoW3QZU22dr8IQvQiYbD4-u-w86NAF5hTeg2WM2_XXICCNjNS7BHP5r0Zb-q5Q1T-_rKymnrRCqUcODvvQfAedUdKLF2XzGis1QU9kWi365C48nnZsLV0J6y5TAtHkQp7WK8vZmZMEWMDpn5SaIVl6JyzFODMHvBNnjLMQOZbLfq9ywxkuGSYTEcjmfAYx2jisP5ebapqUy7gO8tFOq9-EZFsFKwkFoQXM6MlWviuzXbiMxhczj6mqOthmLCxoGEmOgs0isivSKHMcE5tUKM1AMdgrqrq-MUVdqKd0pQ_I6r4-SZWGSjAtHSXajl-1h8jN49EgMIw2oF1MrvpCN5ngya9z2vo4a_1LMR7pfWhrJ-xYlUVG9Iz3LtBoyj8QUmg7ZhMGUZUdspR2H16_MRY20_N-7mU6fyO_Ky6ZvFGQfuorMNReyDEgUFyRx5JJg1FfYJ-3_g0rRGmUR0YRqeeN2Zyv5-sH2fvfMojs9ElVKHApHM1U1iOb-Po4s1jYtIS27njdQoNtwlvkDdoE5p86zvG8atlNiG2S6j6J-yN5Nm00]--></g></svg>